<svg width="550" height="498" viewBox="0 0 550 498" fill="none" xmlns="http://www.w3.org/2000/svg">
<g clip-path="url(#clip0_15_2)">
<path d="M233.995 489.569C234.173 489.578 234.35 489.525 234.5 489.416C234.651 489.306 234.769 489.147 234.838 488.959C234.907 488.77 234.924 488.562 234.886 488.363C234.848 488.164 234.757 487.982 234.626 487.844L234.566 487.573L234.59 487.507C234.77 487.022 235.071 486.609 235.455 486.319C235.84 486.028 236.291 485.875 236.752 485.877C237.213 485.879 237.664 486.036 238.046 486.33C238.429 486.623 238.728 487.039 238.904 487.526C239.61 489.468 240.508 491.414 240.73 493.467C240.827 494.375 240.786 495.295 240.608 496.187C242.266 492.055 243.126 487.565 243.132 483.019C243.132 481.879 243.077 480.739 242.966 479.605C242.874 478.676 242.747 477.754 242.584 476.838C241.696 471.868 239.788 467.209 237.019 463.245C235.678 462.409 234.594 461.124 233.913 459.562C233.666 459.001 233.491 458.401 233.394 457.783C233.688 456.897 233.843 455.959 233.851 455.012C234.061 454.647 234.438 454.465 234.669 454.109C235.813 452.335 237.39 452.645 238.214 455.055C239.972 456.069 239.989 457.751 238.91 459.369C238.224 460.399 238.129 461.792 237.527 462.894C237.589 462.984 237.653 463.072 237.715 463.163C238.848 464.828 239.836 466.615 240.663 468.5C240.462 466.389 240.702 464.252 241.364 462.268C242.035 460.418 243.293 458.86 244.4 457.261C244.693 456.831 245.091 456.51 245.544 456.339C245.996 456.168 246.483 456.154 246.942 456.298C247.401 456.443 247.813 456.74 248.125 457.152C248.436 457.564 248.634 458.073 248.693 458.613L248.7 458.684C248.535 458.79 248.374 458.902 248.217 459.022C248.019 459.173 247.865 459.389 247.777 459.641C247.688 459.893 247.668 460.171 247.719 460.436C247.771 460.702 247.891 460.943 248.065 461.129C248.239 461.315 248.458 461.437 248.693 461.479L248.717 461.483C248.658 462.16 248.555 462.832 248.407 463.491C249.828 469.771 246.76 472.058 242.381 472.16C242.284 472.217 242.19 472.274 242.093 472.328C242.925 475.021 243.446 477.826 243.645 480.674C243.757 482.353 243.751 484.041 243.625 485.719L243.633 485.66C243.95 483.793 244.821 482.109 246.099 480.892C247.997 479.11 250.679 478.454 252.727 477.021C252.945 476.861 253.198 476.776 253.456 476.776C253.715 476.775 253.968 476.859 254.186 477.017C254.405 477.176 254.579 477.402 254.688 477.67C254.798 477.938 254.838 478.236 254.804 478.529L254.795 478.591C254.49 478.733 254.193 478.897 253.905 479.081C253.741 479.187 253.58 479.3 253.422 479.419C253.224 479.57 253.071 479.786 252.982 480.039C252.894 480.291 252.874 480.568 252.925 480.834C252.977 481.099 253.097 481.341 253.271 481.527C253.445 481.713 253.663 481.835 253.899 481.876L253.923 481.88L253.972 481.889C253.451 483.312 252.719 484.622 251.808 485.762C250.92 491.243 247.104 491.763 243.023 490.167H243.02C242.572 492.391 241.924 494.556 241.084 496.626H234.168C234.143 496.538 234.121 496.448 234.098 496.36C234.739 496.406 235.381 496.362 236.012 496.23C235.499 495.51 234.986 494.785 234.473 494.065C234.461 494.052 234.451 494.037 234.441 494.023C234.18 493.654 233.917 493.289 233.657 492.921C233.643 491.792 233.757 490.665 233.995 489.569Z" fill="#F2F2F2"/>
<path d="M61.6686 489.569C61.4902 489.578 61.3136 489.525 61.1627 489.416C61.0118 489.306 60.8939 489.147 60.825 488.959C60.7561 488.77 60.7396 488.562 60.7775 488.363C60.8155 488.164 60.9062 487.982 61.0374 487.844L61.097 487.573L61.0733 487.507C60.8936 487.022 60.5924 486.609 60.2077 486.319C59.8229 486.028 59.3717 485.875 58.9107 485.877C58.4497 485.879 57.9995 486.036 57.6167 486.33C57.2338 486.623 56.9353 487.039 56.7588 487.526C56.0531 489.468 55.1547 491.414 54.9335 493.467C54.836 494.375 54.8771 495.295 55.0549 496.187C53.3975 492.055 52.5369 487.565 52.5313 483.019C52.531 481.879 52.5865 480.739 52.6975 479.605C52.7892 478.676 52.9164 477.754 53.0792 476.838C53.9676 471.868 55.8749 467.209 58.6445 463.245C59.985 462.409 61.0691 461.124 61.7506 459.562C61.9976 459.001 62.1721 458.401 62.2688 457.783C61.975 456.897 61.8206 455.959 61.8126 455.012C61.6019 454.647 61.2247 454.465 60.9946 454.109C59.8499 452.335 58.2729 452.645 57.4496 455.055C55.6909 456.069 55.6739 457.751 56.753 459.369C57.4396 460.399 57.5339 461.792 58.1363 462.894C58.0743 462.984 58.0099 463.072 57.9479 463.163C56.815 464.828 55.8276 466.615 54.9999 468.5C55.2012 466.389 54.9609 464.252 54.2989 462.268C53.6279 460.418 52.3703 458.86 51.2628 457.261C50.9698 456.831 50.572 456.51 50.1197 456.339C49.6673 456.168 49.1806 456.154 48.7212 456.299C48.2618 456.443 47.8503 456.74 47.5386 457.152C47.2269 457.564 47.0291 458.073 46.9702 458.613L46.9636 458.684C47.1281 458.79 47.2891 458.902 47.4467 459.022C47.6446 459.173 47.7979 459.389 47.8866 459.641C47.9753 459.893 47.9952 460.171 47.9437 460.436C47.8923 460.702 47.7718 460.943 47.5981 461.129C47.4244 461.315 47.2056 461.437 46.9703 461.479L46.9463 461.483C47.0049 462.16 47.1084 462.832 47.2561 463.491C45.8353 469.771 48.9027 472.058 53.2825 472.16C53.3791 472.217 53.4734 472.274 53.5701 472.328C52.7384 475.021 52.2168 477.826 52.0182 480.674C51.9058 482.353 51.9124 484.041 52.038 485.719L52.0306 485.66C51.7133 483.793 50.842 482.109 49.564 480.892C47.6658 479.11 44.9841 478.454 42.9363 477.021C42.7187 476.861 42.4656 476.776 42.207 476.776C41.9484 476.775 41.695 476.859 41.4767 477.017C41.2584 477.176 41.0843 477.402 40.9749 477.67C40.8656 477.938 40.8255 478.236 40.8595 478.529L40.8679 478.591C41.1731 478.733 41.4703 478.897 41.7578 479.081C41.9223 479.187 42.0833 479.3 42.2409 479.419C42.4388 479.57 42.5921 479.786 42.6808 480.039C42.7695 480.291 42.7894 480.568 42.738 480.834C42.6865 481.099 42.566 481.341 42.3923 481.527C42.2186 481.713 41.9998 481.835 41.7645 481.876L41.7404 481.88L41.6909 481.889C42.2124 483.312 42.9445 484.622 43.855 485.762C44.7434 491.243 48.559 491.763 52.6405 490.167H52.6429C53.0908 492.391 53.7396 494.556 54.579 496.626H61.4953C61.5201 496.538 61.5424 496.448 61.5648 496.36C60.9246 496.406 60.2819 496.362 59.651 496.23C60.1642 495.51 60.6773 494.785 61.1904 494.065C61.2019 494.052 61.2127 494.037 61.2227 494.023C61.483 493.654 61.7457 493.289 62.006 492.921C62.0199 491.792 61.9064 490.665 61.6686 489.569Z" fill="#F2F2F2"/>
<path d="M166.198 64.8645C167.597 61.6449 169.834 58.9718 171.202 55.7347C172.57 52.4976 172.836 48.165 170.557 45.6872C168.621 43.5834 165.59 43.5539 163.276 42.0301C157.38 38.1477 157.387 25.8165 150.646 24.751C147.368 24.2329 144.403 27.042 142.422 30.0708C140.44 33.0996 138.862 36.6339 136.114 38.7411C133.004 41.1265 128.983 41.2303 125.529 42.8871C118.908 46.0638 115.436 54.2325 112.533 61.7394C110.663 66.5755 108.75 71.7915 109.618 76.9849C107.732 78.326 108.572 81.933 110.455 83.2803C112.337 84.6275 114.702 84.5976 116.863 85.1812C121.407 86.4077 125.127 90.5408 126.89 95.4805C128.265 99.3305 128.546 103.558 128.811 107.705C129.271 114.901 129.731 122.097 130.192 129.293C130.396 132.494 130.665 135.897 132.37 138.448C134.075 140.998 137.768 142.067 139.685 139.721C141.517 137.478 140.692 133.928 140.654 130.861C140.617 127.793 143.044 123.974 145.332 125.578L146.138 123.486C151.364 121.348 155.94 117.534 159.318 112.501C162.697 107.468 164.734 101.429 165.187 95.1063C165.772 84.9231 162.226 74.0043 166.198 64.8645Z" fill="#E6E6E6"/>
<path d="M171.538 129.438C172.043 128.894 172.401 128.197 172.57 127.428C172.74 126.66 172.713 125.852 172.494 125.1C172.274 124.348 171.871 123.683 171.332 123.184C170.793 122.685 170.141 122.373 169.452 122.284L169.46 122.63C168.477 123.286 167.355 123.623 166.216 123.604C165.081 123.583 163.952 123.788 162.878 124.208C162.345 124.43 161.882 124.831 161.552 125.359C161.221 125.887 161.038 126.517 161.027 127.166C161.09 127.664 161.256 128.137 161.513 128.545C161.769 128.953 162.108 129.284 162.501 129.511C163.289 129.955 164.135 130.248 165.006 130.38C167.25 130.863 169.876 131.228 171.538 129.438Z" fill="#E6E6E6"/>
<path d="M215.3 65.035C216.24 64.3045 217.038 63.3601 217.644 62.2611C217.938 61.705 218.078 61.0605 218.045 60.412C218.012 59.7635 217.809 59.1415 217.461 58.6276C216.754 57.9259 215.843 57.55 214.907 57.5728C212.363 57.3558 209.807 57.7003 207.377 58.5875C209.872 61.1132 212.367 63.639 214.861 66.1648L215.3 65.035Z" fill="#E6E6E6"/>
<path d="M202.825 71.6041C203.833 72.8759 203.511 74.8488 203.226 76.5338C202.941 78.2188 202.904 80.3243 204.172 81.2435C205.271 82.0403 206.814 81.3901 207.618 80.2203C208.337 78.9726 208.775 77.5413 208.893 76.0536C209.288 73.8915 209.466 71.685 209.425 69.4767C209.377 67.252 208.691 65.1069 207.471 63.3723C206.605 62.2442 205.452 61.4541 204.173 61.1127C202.894 60.7714 201.554 60.8958 200.341 61.4687L201.5 61.4034C200.657 62.6397 200.018 64.0408 199.614 65.5383C199.421 66.2906 199.407 67.0884 199.575 67.8488C199.742 68.6092 200.085 69.3045 200.567 69.8624C201.255 70.5462 202.213 70.8321 202.825 71.6041Z" fill="#E6E6E6"/>
<path d="M259.692 50.2728L259.898 49.5476C259.036 50.1174 258.372 51.0082 258.016 52.0709C257.66 53.1336 257.635 54.3037 257.944 55.3853C258.607 54.7878 259.118 53.9991 259.426 53.1004C259.733 52.2018 259.825 51.2257 259.692 50.2728Z" fill="#E6E6E6"/>
<path d="M248.49 60.6535C249.587 59.9433 250.524 58.9492 251.224 57.7509C251.925 56.5525 252.37 55.1832 252.524 53.7528C252.643 52.8634 252.553 51.9538 252.263 51.1173C252.114 50.702 251.878 50.3352 251.575 50.0494C251.272 49.7637 250.912 49.5679 250.527 49.4794L250.058 50.3237C249.385 49.6617 248.254 50.3425 247.971 51.3045C247.788 52.3033 247.864 53.3413 248.189 54.2916C248.514 55.2477 248.499 56.3108 248.148 57.2546C247.77 57.8096 247.345 58.3205 246.878 58.7797C246.65 59.0167 246.501 59.3369 246.457 59.6855C246.413 60.0341 246.476 60.3894 246.635 60.6908C247.077 61.2674 247.903 61.0254 248.49 60.6535Z" fill="#E6E6E6"/>
<path d="M243.714 55.9372C244.115 55.111 244.305 54.1719 244.26 53.2281L243.234 52.8602C242.578 53.1642 241.996 53.6452 241.538 54.2621C241.399 54.4214 241.292 54.614 241.226 54.8259C241.16 55.0379 241.135 55.2639 241.154 55.4879C241.173 55.712 241.236 55.9284 241.336 56.1217C241.437 56.3151 241.574 56.4805 241.738 56.6063C241.901 56.7321 242.087 56.815 242.281 56.8492C242.476 56.8833 242.675 56.8679 242.864 56.804C243.052 56.74 243.227 56.6292 243.373 56.4793C243.52 56.3295 243.637 56.1444 243.714 55.9372Z" fill="#E6E6E6"/>
<path d="M293.884 50.0009C293.977 50.0897 294.069 50.181 294.162 50.2707C294.243 50.251 294.321 50.2158 294.405 50.2041L293.884 50.0009Z" fill="#E6E6E6"/>
<path d="M292.239 60.2956C293.181 59.4244 294.123 58.5532 295.066 57.6819C295.566 57.2771 295.993 56.7645 296.322 56.1728C296.547 55.6127 296.644 54.9967 296.604 54.3822C296.564 53.7676 296.389 53.1747 296.094 52.6585C295.573 51.7435 294.919 50.9361 294.162 50.2707C293.329 50.4958 292.598 51.0619 292.107 51.8618C291.615 52.6617 291.397 53.6398 291.494 54.6109C291.665 55.8462 292.343 57.1671 291.789 58.2454C291.574 58.6653 291.203 58.9511 290.954 59.3465C290.705 59.7418 290.624 60.3715 290.966 60.6622C291.346 60.985 291.871 60.6356 292.239 60.2956Z" fill="#E6E6E6"/>
<path d="M294.3 65.6288C294.65 65.6502 295.001 65.5853 295.327 65.4384C295.654 65.2916 295.949 65.0661 296.192 64.7775C297.452 63.5978 298.554 62.2141 299.464 60.6701C297.343 61.4377 295.223 62.2052 293.102 62.9728L293.763 63.8563C293.176 64.2942 293.611 65.478 294.3 65.6288Z" fill="#E6E6E6"/>
<path d="M300.243 70.6166C300.372 70.9946 300.606 71.3137 300.909 71.5251C301.213 71.7366 301.568 71.8289 301.921 71.7877C302.273 71.7341 302.61 71.593 302.909 71.3743C303.208 71.1557 303.461 70.8647 303.651 70.522C303.974 69.9788 304.163 69.3471 304.2 68.6922C304.237 68.0373 304.121 67.3829 303.862 66.7968C303.604 66.2107 303.213 65.7141 302.73 65.3584C302.248 65.0028 301.691 64.8009 301.117 64.7737L301.702 65.7959C301.852 67.5407 299.776 68.9467 300.243 70.6166Z" fill="#E6E6E6"/>
<path d="M341.424 89.726C341.998 90.2151 342.695 90.4784 343.41 90.4764C344.126 90.4745 344.821 90.2074 345.393 89.7152C345.763 89.3536 346.064 88.9084 346.277 88.4075C346.49 87.9066 346.61 87.3609 346.63 86.8045C346.65 86.2481 346.569 85.693 346.393 85.174C346.216 84.655 345.948 84.1832 345.604 83.7882L344.521 84.4792C343.921 84.0381 343.194 83.8804 342.493 84.0394C341.793 84.1983 341.174 84.6616 340.766 85.3316C340.401 86.0339 340.266 86.862 340.387 87.6674C340.508 88.4728 340.875 89.2026 341.424 89.726Z" fill="#E6E6E6"/>
<path d="M354.018 91.3553C354.545 91.1803 355.024 90.8535 355.41 90.4062C355.795 89.9589 356.073 89.4061 356.218 88.8007L354.113 88.4845C353.527 87.979 352.845 87.6387 352.123 87.4912C351.761 87.4292 351.391 87.5113 351.075 87.7238C350.759 87.9363 350.517 88.2663 350.389 88.6585C350.344 88.9921 350.375 89.3333 350.478 89.6496C350.582 89.9658 350.754 90.2465 350.979 90.465C351.377 90.8982 351.865 91.2075 352.397 91.3634C352.929 91.5193 353.487 91.5165 354.018 91.3553Z" fill="#E6E6E6"/>
<path d="M345.323 96.1657C345.36 96.5571 345.494 96.9284 345.709 97.2361C345.924 97.5439 346.211 97.7754 346.537 97.9035C346.893 98.0965 347.291 98.1628 347.68 98.0939C348.069 98.025 348.432 97.8241 348.72 97.5172C348.847 97.3532 348.938 97.1569 348.985 96.9446C349.033 96.7323 349.035 96.5101 348.993 96.2966C348.95 96.083 348.863 95.8841 348.739 95.7165C348.616 95.549 348.459 95.4175 348.282 95.333L346.704 95.0049C346.093 94.6439 345.314 95.3807 345.323 96.1657Z" fill="#E6E6E6"/>
<path d="M253.711 108.853L252.489 107.578C252.814 108.095 253.23 108.53 253.711 108.853Z" fill="#E6E6E6"/>
<path d="M244.377 101.344C245.129 105.337 248.892 108.589 252.309 107.39L252.489 107.578C251.401 105.877 251.217 103.359 251.471 101.17C251.942 97.4193 253.233 93.8643 255.223 90.8334C257.214 87.8026 259.84 85.3934 262.86 83.8283C263.687 83.5332 264.427 82.9824 264.997 82.2369C265.484 81.4233 265.303 80.028 264.464 79.7981C264.008 79.7386 263.548 79.8603 263.162 80.1427L256.813 83.7135C253.606 85.5171 250.336 87.3723 247.817 90.27C245.299 93.1677 243.625 97.351 244.377 101.344Z" fill="#E6E6E6"/>
<path d="M141.896 238.64C135.981 233.801 129.502 229.932 122.649 227.145C118.436 225.434 113.909 224.128 109.52 225.1C107.113 225.669 104.857 226.879 102.936 228.631C101.015 230.384 99.4833 232.629 98.4645 235.186C97.4828 237.76 97.0212 240.555 97.1138 243.361C97.2064 246.168 97.8508 248.914 98.9993 251.397C101.023 255.732 104.528 259.184 105.7 263.911C106.49 267.098 106.116 270.491 105.736 273.775C104.959 280.486 104.182 287.196 103.405 293.906C102.697 300.016 102.008 306.374 103.7 312.225C105.393 318.076 110.223 323.234 115.588 322.613L116.651 322.521C113.102 319.763 112.107 314.054 113.164 309.3C114.221 304.546 116.903 300.515 119.522 296.629C127.293 285.097 135.064 273.565 142.835 262.034C145.979 257.368 149.304 251.601 147.628 246.033C146.675 242.867 144.278 240.589 141.896 238.64Z" fill="#E6E6E6"/>
<path d="M88.9371 209.488C88.1501 209.183 87.3188 209.861 86.856 210.65C86.4821 211.497 86.0426 212.304 85.543 213.062C84.3325 214.488 82.1264 214.204 80.8208 212.893C79.5152 211.581 78.9495 209.552 78.6961 207.586C78.3921 205.228 78.5233 202.597 79.8854 200.791C81.2875 198.932 83.5921 198.433 85.7127 198.047C87.9033 197.649 90.3574 197.316 92.152 198.806C93.2824 199.744 93.9413 201.259 94.9884 202.316C96.0355 203.373 97.8982 203.773 98.6862 202.455C98.8925 201.987 98.9968 201.47 98.9902 200.947C98.9836 200.423 98.8663 199.91 98.6484 199.449C98.2054 198.532 97.9389 197.518 97.8667 196.473C97.9195 195.024 98.9379 193.872 99.9798 193.044C101.022 192.215 102.198 191.501 102.882 190.278C103.723 188.775 103.634 186.839 104.155 185.157C105.418 181.086 109.923 179.276 111.236 175.226C111.552 174.374 111.588 173.42 111.336 172.541C110.786 170.928 109.302 171.245 109.211 169.273C109.123 167.387 110.5 165.538 111.899 164.75C113.827 163.664 116.075 163.752 118.224 163.686C120.373 163.62 122.689 163.294 124.266 161.624C124.776 161.023 125.17 160.305 125.421 159.518C125.672 158.731 125.774 157.892 125.722 157.056C125.67 156.221 125.464 155.407 125.117 154.669C124.771 153.93 124.292 153.284 123.712 152.772C122.537 151.844 121.051 151.522 119.908 150.544C118.483 149.326 117.809 147.297 116.7 145.708C115.777 144.498 114.721 143.429 113.558 142.529C112.606 141.722 111.655 140.915 110.703 140.107C108.982 138.648 107.192 137.152 105.098 136.632C103.004 136.112 100.51 136.848 99.4618 138.983C99.0482 139.935 98.8223 140.979 98.8001 142.041C98.7045 144.542 98.7958 147.048 99.0729 149.532C99.2457 151.531 99.4186 153.53 99.5914 155.529C99.7463 157.321 99.58 159.684 98.0577 160.149C94.6807 161.18 95.8203 155.474 95.0713 153.726C93.9249 151.05 88.6576 149.765 86.4059 148.65C84.9996 147.954 83.5154 147.185 82.6663 145.727C81.6094 143.912 81.8264 141.442 82.6551 139.478C83.4839 137.515 84.8342 135.917 86.061 134.247C87.3115 132.546 88.4501 130.741 89.5875 128.939C90.9066 126.848 92.2257 124.758 93.5448 122.668C95.2366 119.986 97.0151 116.714 96.0541 113.597C95.8459 113.18 95.5345 112.842 95.1591 112.626C94.7838 112.41 94.361 112.326 93.9438 112.383C93.5266 112.441 93.1336 112.638 92.8138 112.949C92.4941 113.261 92.2619 113.673 92.1464 114.135C91.7252 115.818 92.8488 117.967 91.7739 119.215C91.4057 119.554 90.9449 119.734 90.4722 119.724C89.9995 119.713 89.545 119.514 89.1881 119.159C88.492 118.425 87.9617 117.508 87.6426 116.488C86.3403 113.181 85.0716 109.853 83.7348 106.564C83.3122 105.524 82.8712 103.744 81.5905 103.919C80.4787 104.071 79.8783 105.923 79.917 106.998C79.9732 108.562 80.7296 109.959 81.3077 111.378C81.8858 112.797 82.2901 114.501 81.6554 115.888C80.8516 117.645 78.8161 118.039 77.0826 117.981C73.8151 117.868 70.6135 116.903 67.7226 115.159C67.6471 116.994 67.5715 118.829 67.496 120.665C65.1951 119.564 62.8942 118.463 60.5932 117.363C60.1464 117.149 59.6995 116.935 59.2526 116.722C57.3117 115.793 55.3683 114.864 53.3702 114.11C52.2359 113.682 51.0858 113.312 49.9361 112.941C49.2372 112.716 48.5383 112.491 47.8395 112.266C46.4604 111.707 44.9976 111.469 43.5369 111.564C42.0022 111.785 40.6334 112.727 39.2141 113.431C36.0475 115.002 31.9517 113.421 28.5583 113.393C27.2123 111.148 25.395 109.323 23.2728 108.088C21.1505 106.852 18.791 106.244 16.41 106.319C14.0291 106.395 11.7026 107.151 9.64351 108.519C7.58439 109.887 5.85832 111.824 4.62316 114.151C4.02654 115.331 3.49522 116.551 3.03234 117.807C2.57192 118.986 2.11149 120.165 1.65104 121.344C0.975601 123.074 0.285258 124.896 0.418019 126.785C0.55078 128.673 1.81736 130.602 3.4748 130.585C-0.433578 132.607 -1.24686 139.683 2.072 142.79C2.991 143.65 4.11794 144.213 4.94495 145.187C5.57 145.924 5.98817 146.857 6.14579 147.868C6.30341 148.878 6.19329 149.919 5.82955 150.857C5.46582 151.795 4.86506 152.588 4.10439 153.133C3.34373 153.678 2.45785 153.951 1.56044 153.917C3.87591 154.94 6.42639 155.035 8.79527 154.187C11.1641 153.339 13.2114 151.598 14.6026 149.248C16.0215 146.709 16.6382 143.538 18.5685 141.486C21.1248 138.769 25.3473 138.98 28.2956 141.116C31.244 143.253 33.1091 146.89 34.3921 150.601C36.0734 155.463 37.1494 161.02 40.7312 164.272C42.4632 165.845 44.6565 166.729 46.1873 168.554C48.3673 171.153 48.7444 175.075 48.6953 178.675C48.6461 182.275 48.3069 186.009 49.4543 189.362C50.6017 192.715 53.8911 195.473 56.8408 194.209C55.9958 197.074 56.0217 200.181 56.9143 203.027C57.8069 205.873 59.514 208.292 61.7592 209.891C61.2218 206.082 60.6844 202.273 60.147 198.464C62.8255 199.325 64.5614 202.294 65.564 205.261C66.5666 208.227 67.0963 211.435 68.5496 214.147C70.838 218.417 74.9819 220.257 79.1975 220.241C83.7515 220.223 85.4805 217.742 88.4815 214.087C89.0845 213.464 89.5421 212.679 89.8131 211.803C89.9356 211.361 89.9145 210.884 89.7535 210.458C89.5925 210.033 89.3026 209.689 88.9371 209.488Z" fill="#E6E6E6"/>
<path d="M101.832 209.299C99.2867 208.841 96.7413 208.384 94.1958 207.927C95.5302 208.844 96.8646 209.761 98.199 210.677C99.3117 211.524 100.522 212.19 101.794 212.657C102.432 212.886 103.105 212.963 103.77 212.883C104.436 212.803 105.079 212.568 105.662 212.192L105.336 211.48C104.823 209.997 103.211 209.546 101.832 209.299Z" fill="#E6E6E6"/>
<path d="M100.103 225.468L100.12 225.418C99.9662 225.126 99.7395 224.894 99.469 224.75C99.1986 224.607 98.8968 224.56 98.6025 224.614C98.0161 224.734 97.4167 224.745 96.8272 224.647C96.4528 224.479 96.1189 224.212 95.8533 223.867C95.5878 223.522 95.3984 223.11 95.3009 222.664C95.0479 221.794 94.973 220.863 94.6849 220.008C94.4767 219.331 94.1092 218.733 93.6228 218.28C93.1365 217.826 92.5501 217.535 91.9282 217.438C91.3042 217.381 90.6855 217.607 90.206 218.067C89.7265 218.527 89.4246 219.184 89.3657 219.896C89.4147 220.629 89.6186 221.338 89.9599 221.962C90.2345 222.565 90.509 223.169 90.7836 223.772C91.015 224.313 91.2812 224.834 91.5799 225.33C92.066 226.095 92.7014 226.72 93.4359 227.155C94.1703 227.591 94.9835 227.825 95.8109 227.838C96.6382 227.852 97.4569 227.644 98.2019 227.233C98.9469 226.822 99.5977 226.217 100.103 225.468Z" fill="#E6E6E6"/>
<path d="M85.2366 70.6664C87.1749 71.9723 89.6021 72.8723 90.523 75.2184L91.0543 75.4145C90.4748 76.2375 89.8953 77.0604 89.3158 77.8833C88.5996 78.9003 87.8465 80.0334 87.8633 81.3387C87.8863 83.1363 89.3995 84.4925 90.9283 84.9163C92.5598 85.2999 94.2578 84.9771 95.6927 84.0106C97.1276 83.044 98.1971 81.5027 98.6936 79.6857C98.8754 78.9279 98.9505 78.1419 99.1099 77.3776C99.5747 75.5648 100.276 73.8426 101.191 72.2691C106.337 62.3736 111.484 52.4782 116.631 42.5828C117.272 41.3504 117.933 39.8762 117.451 38.5527C117.194 37.9928 116.796 37.5338 116.308 37.2348C115.82 36.9358 115.266 36.8105 114.715 36.8751C113.617 37.0275 112.557 37.4348 111.601 38.0719C111.177 37.2194 110.577 36.4975 109.855 35.9681C109.132 35.4387 108.308 35.1176 107.453 35.0325C105.743 34.8817 104.023 35.0529 102.362 35.5392C98.6089 36.1864 94.9898 37.6072 91.681 39.7325C89.8708 40.7783 87.8788 42.0698 87.3536 44.3087C86.7076 47.0628 88.7895 49.8697 91.1865 50.6611C93.5834 51.4527 96.1418 50.788 98.5678 50.1217C98.842 51.4657 98.7277 52.875 98.2421 54.1385C97.7564 55.402 96.9255 56.4516 95.8739 57.13C94.8223 57.8083 93.6066 58.079 92.4091 57.9013C91.2116 57.7236 90.0967 57.1072 89.2316 56.1444C87.4927 54.2094 86.6409 50.8502 84.2535 50.3508C81.8736 49.853 79.9819 52.7539 79.4566 55.4529C78.9428 58.3599 79.2215 61.3771 80.2551 64.0975C81.2886 66.8179 83.0273 69.1106 85.2366 70.6664Z" fill="#E6E6E6"/>
<path d="M115.087 118.282C113.941 114.59 112.435 111.057 110.597 107.751C109.204 105.137 107.484 102.768 105.493 100.722C103.673 98.9254 101.58 97.5248 99.3193 96.5889C97.1246 95.6819 94.6812 95.2339 92.4624 96.0608C90.2436 96.8879 88.356 99.2455 88.401 101.912C88.4507 104.861 90.7081 107.167 93.0608 108.378C95.4134 109.59 98.0305 110.117 100.25 111.621C101.759 112.667 103.021 114.12 103.923 115.854C104.825 117.588 105.341 119.548 105.426 121.563L105.985 122.619C104.718 123.099 103.537 123.834 102.497 124.789C101.982 125.275 101.589 125.907 101.356 126.622C101.124 127.337 101.06 128.11 101.173 128.862C101.561 130.647 103.156 131.672 104.598 132.488C107.264 133.997 109.929 135.506 112.595 137.014C111.237 132.39 115.681 128.086 115.926 123.216C115.936 121.524 115.651 119.847 115.087 118.282Z" fill="#E6E6E6"/>
<path d="M48.0676 105.795C49.6845 107.23 52.1704 106.559 53.6516 104.944C55.1328 103.329 55.8542 101.031 56.527 98.8215C56.2813 101.009 56.3046 103.224 56.5961 105.404C56.748 106.494 57.0962 107.536 57.6187 108.464C58.1412 109.392 58.8267 110.186 59.6316 110.796C60.3625 111.254 61.1504 111.582 61.9679 111.768C65.7686 112.757 69.7404 112.432 73.3795 110.836L73.4121 109.414C71.584 109.653 70.2006 107.361 70.0799 105.263C69.9592 103.165 70.6256 101.107 70.6841 99.0055C70.7427 96.9038 69.8564 94.4483 68.0458 94.0744C68.3627 94.8017 68.4782 95.6221 68.3771 96.4264C68.2759 97.2307 67.9629 97.9807 67.4795 98.5766C66.9962 99.1725 66.3655 99.5861 65.6714 99.7623C64.9774 99.9385 64.2528 99.8689 63.5941 99.5629C61.4983 98.5892 60.737 95.6713 59.1174 93.866C58.1166 92.8487 56.8751 92.1922 55.5488 91.979C54.2225 91.7658 52.8706 92.0055 51.6632 92.6679C50.471 93.363 49.4252 94.3457 48.5979 95.548C47.7706 96.7503 47.1816 98.1435 46.8716 99.6314C46.3798 101.79 46.5257 104.427 48.0676 105.795Z" fill="#E6E6E6"/>
<path d="M97.9679 90.8201L98.0429 90.6809C97.5915 89.1914 96.1924 88.318 94.8268 88.0963C93.4501 87.9925 92.0678 88.0447 90.7001 88.2522C89.3199 88.4563 87.9206 88.104 86.743 87.2562C85.803 86.453 85.2674 85.1895 84.5159 84.1592C83.7644 83.1289 82.5481 82.2816 81.4565 82.7742C80.2746 83.3076 79.9593 85.2008 80.5328 86.4966C81.2085 87.7403 82.2278 88.691 83.4293 89.1984C87.9796 91.5853 93.0996 92.1565 97.9679 90.8201Z" fill="#E6E6E6"/>
<path d="M82.4358 95.285C82.0578 95.6015 81.8015 96.0727 81.7206 96.6001C81.6397 97.1276 81.7403 97.6704 82.0016 98.1149C82.2628 98.5594 82.6644 98.8713 83.1222 98.9852C83.5801 99.0992 84.0587 99.0063 84.4581 98.7262L84.8568 99.176C85.3871 98.0907 85.6058 96.6368 84.9277 95.665C84.6262 95.2621 84.2051 95.0005 83.7453 94.9304C83.2855 94.8603 82.8192 94.9866 82.4358 95.285Z" fill="#E6E6E6"/>
<path d="M77.7697 99.1784C77.7755 98.7907 77.6785 98.41 77.4914 98.0865C77.3043 97.763 77.0359 97.5118 76.7215 97.3659C76.5074 97.3239 76.2882 97.3319 76.0769 97.3894C75.8656 97.4468 75.6667 97.5525 75.4922 97.7001C75.3176 97.8478 75.171 98.0343 75.0612 98.2484C74.9514 98.4625 74.8806 98.6998 74.8532 98.946C74.8203 99.4475 74.8779 99.9513 75.0226 100.426C75.1673 100.901 75.3958 101.337 75.6941 101.707C75.8676 102.005 76.0945 102.257 76.3596 102.448C76.6247 102.638 76.9221 102.762 77.2323 102.811C77.8571 102.835 78.4943 102.088 78.2409 101.435L77.2868 101.414C77.5807 100.714 77.7452 99.9535 77.7697 99.1784Z" fill="#E6E6E6"/>
<path d="M59.1104 88.0112C59.4608 88.3357 59.8112 88.6603 60.1617 88.9849C60.7686 89.5846 61.4243 90.1166 62.1198 90.5738C63.3363 91.3439 64.7669 91.544 66.1099 91.132C66.773 90.9159 67.3778 90.5126 67.8686 89.9591C68.3594 89.4056 68.7204 88.7198 68.9183 87.965C69.3372 86.1607 68.6538 84.2873 67.985 82.5843C67.8323 82.0969 67.5804 81.6581 67.2501 81.3039C67.0809 81.1326 66.865 81.0335 66.6391 81.0233C66.4132 81.0132 66.1913 81.0926 66.0108 81.2482C65.8799 81.4345 65.7929 81.6559 65.758 81.8914C65.723 82.1269 65.7414 82.3688 65.8113 82.5939C65.9551 83.0425 66.0208 83.519 66.0047 83.9964C65.9381 84.4673 65.5056 84.9124 65.1246 84.7177L65.0639 86.3207C63.2444 85.2682 62.2822 82.4685 60.2573 82.1924C59.8029 82.1304 59.3422 82.2123 58.9257 82.429C58.5092 82.6458 58.1527 82.9891 57.8952 83.4215C57.6378 83.8539 57.4891 84.3588 57.4656 84.8812C57.442 85.4035 57.5445 85.9233 57.7617 86.3836C58.1132 87.0222 58.5715 87.5753 59.1104 88.0112Z" fill="#E6E6E6"/>
<path d="M54.7768 81.0908C55.1977 80.761 55.5307 80.3048 55.7392 79.7725C55.9476 79.2402 56.0234 78.6524 55.9581 78.074C55.9077 77.7939 55.8039 77.5299 55.6542 77.3007C55.5044 77.0716 55.3123 76.883 55.0915 76.7484C54.8707 76.6137 54.6266 76.5363 54.3767 76.5217C54.1268 76.507 53.8771 76.5555 53.6454 76.6636C53.1256 77.1077 52.7604 77.7482 52.6148 78.471C52.1353 80.0168 51.6558 81.5627 51.1762 83.1085L51.9821 82.4383C52.9793 82.1929 53.9272 81.7358 54.7768 81.0908Z" fill="#E6E6E6"/>
<path d="M64.1162 71.6042C64.2602 71.3967 64.3627 71.1557 64.4163 70.8981C64.47 70.6404 64.4736 70.3725 64.4269 70.1131C64.3802 69.8537 64.2843 69.6091 64.146 69.3967C64.0077 69.1842 63.8303 69.0089 63.6263 68.8832L62.6186 68.7756C62.3895 68.8419 62.1771 68.9686 61.9986 69.1456C61.8201 69.3227 61.6804 69.5451 61.5907 69.7949C61.501 70.0448 61.4637 70.3153 61.482 70.5846C61.5003 70.8539 61.5735 71.1146 61.6959 71.3457C61.8182 71.5768 61.9863 71.7719 62.1866 71.9154C62.3868 72.0588 62.6137 72.1467 62.8491 72.1718C63.0844 72.1969 63.3216 72.1587 63.5417 72.0601C63.7617 71.9616 63.9585 71.8054 64.1162 71.6042Z" fill="#E6E6E6"/>
<path d="M73.3874 73.3819C74.3278 73.8961 75.5181 74.386 76.3362 73.6477C76.5786 73.397 76.7588 73.0778 76.8588 72.7222C76.9588 72.3666 76.975 71.9872 76.9058 71.6222C76.759 70.8939 76.4752 70.2109 76.0742 69.6206C74.8232 67.5679 73.2337 65.8139 71.3948 64.4568L70.9401 65.1319C70.305 67.0165 69.6919 69.2165 70.5777 70.9639C71.1749 72.1419 72.3127 72.7943 73.3874 73.3819Z" fill="#E6E6E6"/>
<path d="M80.3929 75.0591L82.1514 75.9681C81.979 75.6247 81.7163 75.352 81.4007 75.1889C81.085 75.0257 80.7325 74.9803 80.3929 75.0591Z" fill="#E6E6E6"/>
<path d="M75.6541 81.382L74.8232 81.6949C74.1166 83.0218 74.4232 84.7185 74.7518 86.2257C74.9596 87.1786 75.4077 88.351 76.2661 88.3077C77.1014 88.2655 77.471 87.108 77.6313 86.1703C77.8816 85.1515 77.9087 84.0781 77.7103 83.0446C77.5971 82.5329 77.3278 82.0843 76.9508 81.7795C76.5738 81.4747 76.114 81.3337 75.6541 81.382Z" fill="#E6E6E6"/>
<path d="M62.4032 76.916L63.018 77.1989C63.1622 77.1754 63.2955 77.0982 63.3973 76.9793C63.4992 76.8604 63.5639 76.7064 63.5814 76.5412C63.5989 76.376 63.5683 76.2089 63.4942 76.0656C63.4201 75.9223 63.3068 75.811 63.1717 75.7488C63.0366 75.6867 62.8874 75.6772 62.7471 75.7218C62.6068 75.7664 62.4833 75.8627 62.3958 75.9956C62.3082 76.1286 62.2615 76.2908 62.2628 76.4572C62.2642 76.6236 62.3135 76.7849 62.4032 76.916Z" fill="#E6E6E6"/>
<path d="M93.3995 130.643C93.1017 130.651 92.8097 130.739 92.548 130.902C92.2863 131.065 92.0625 131.297 91.8952 131.578C91.7278 131.86 91.6218 132.183 91.586 132.521C91.5503 132.859 91.5857 133.202 91.6895 133.521C92.2933 135.007 94.3726 135.014 95.2967 133.761C95.5334 133.405 95.703 132.997 95.7948 132.563C95.8866 132.128 95.8985 131.677 95.83 131.237C95.7614 130.797 95.6137 130.378 95.3963 130.006C95.1789 129.635 94.8965 129.319 94.5669 129.078L93.3995 130.643Z" fill="#E6E6E6"/>
<path d="M123.348 165.839C123.107 165.913 122.88 166.041 122.683 166.216C122.485 166.391 122.32 166.61 122.198 166.86C122.076 167.109 121.999 167.384 121.971 167.668C121.943 167.952 121.965 168.24 122.037 168.514L123.763 168.651C124.347 168.315 124.932 167.98 125.517 167.644C125.481 167.362 125.397 167.09 125.268 166.845C125.139 166.6 124.968 166.387 124.766 166.218C124.564 166.05 124.334 165.93 124.091 165.865C123.847 165.799 123.595 165.791 123.348 165.839Z" fill="#E6E6E6"/>
<path d="M116.331 168.279C115.838 168.68 115.441 169.218 115.179 169.842C114.918 170.467 114.8 171.157 114.836 171.848C114.892 172.537 115.139 173.188 115.54 173.707C115.942 174.225 116.477 174.584 117.069 174.732C117.667 174.839 118.277 174.683 118.778 174.295C119.278 173.907 119.631 173.316 119.765 172.642C120.057 170.602 118.138 169.107 117.449 167.196L116.331 168.279Z" fill="#E6E6E6"/>
<path d="M183.379 154.803C183.561 156.335 182.353 157.676 182.308 159.222C182.255 161.055 184.001 162.481 185.598 162.301C186.391 162.144 187.141 161.779 187.79 161.235C188.438 160.69 188.968 159.982 189.336 159.164L189.37 158.992C188.592 157.987 187.814 156.982 187.036 155.977C186.081 154.743 185.068 153.338 185.105 151.691C185.124 150.879 185.404 150.092 185.388 149.28C185.351 148.696 185.237 148.121 185.05 147.576C184.839 146.857 184.552 146.048 183.924 145.805C183.138 145.502 182.344 146.298 181.969 147.144C181.631 147.924 181.467 148.788 181.491 149.658C181.515 150.528 181.726 151.377 182.106 152.132C182.56 153.014 183.258 153.789 183.379 154.803Z" fill="#E6E6E6"/>
<path d="M176.042 160.192C176.212 160.297 176.4 160.359 176.593 160.373C176.786 160.387 176.979 160.354 177.16 160.274C177.853 160.139 178.519 159.863 179.126 159.457C179.428 159.25 179.676 158.955 179.845 158.602C180.014 158.25 180.098 157.852 180.089 157.45C179.984 156.944 179.75 156.486 179.416 156.132C179.083 155.779 178.666 155.546 178.217 155.464C177.905 155.339 177.572 155.303 177.245 155.36C176.918 155.417 176.609 155.565 176.345 155.791C175.765 156.412 175.834 157.467 175.948 158.366L175.825 158.6C175.716 159.156 175.647 159.846 176.042 160.192Z" fill="#E6E6E6"/>
<path d="M298.503 225.659C298.335 225.181 298.167 224.702 297.998 224.224C297.768 224.874 297.853 225.538 298.503 225.659Z" fill="#E6E6E6"/>
<path d="M399.52 125.068C397.361 122.39 396.038 120.846 394.675 117.527C393.933 115.697 392.805 114.105 391.394 112.894C389.982 111.682 388.33 110.889 386.585 110.585C382.105 109.742 377.527 111.077 372.993 110.81C365.729 110.381 359.18 105.929 352.225 103.501C348.33 102.254 344.365 101.319 340.356 100.703C338.047 100.286 335.737 99.8684 333.427 99.451C325.856 98.0827 318.237 96.7104 310.574 96.8921C308.364 96.9445 305.286 96.1855 305.463 93.6677C305.683 90.5406 310.606 90.9511 311.553 88.0065C312.139 86.1849 310.736 84.2724 309.199 83.4488C307.661 82.6251 305.886 82.3775 304.491 81.2716C303.095 80.1658 302.331 77.6023 303.613 76.3303C300.058 78.413 296.503 80.4957 292.948 82.5784C289.993 84.3099 286.69 86.5627 286.168 90.3112C284.387 90.849 282.829 92.0864 281.766 93.8062C279.767 93.8181 278.195 96.012 277.865 98.266C277.535 100.52 278.135 102.801 278.728 104.984C278.003 103.396 277.232 101.748 275.954 100.712C274.675 99.6756 272.729 99.4783 271.639 100.765C270.521 102.086 270.782 104.302 271.573 105.902C272.365 107.502 273.58 108.794 274.327 110.422C276.658 115.506 272.433 122.664 267.435 122.098C267.77 116.848 268.105 111.598 268.44 106.347C268.653 104.732 268.534 103.083 268.093 101.53C267.548 100.027 266.152 98.7922 264.762 99.1471C262.264 99.7853 262.478 103.967 263.517 106.641C264.556 109.315 265.592 113.032 263.471 114.67C262.101 115.727 260.243 115.074 258.764 114.23C257.285 113.386 255.703 112.346 254.086 112.74C252.47 113.135 251.453 115.959 252.881 116.91C250.513 116.44 248.144 115.969 245.775 115.499C245.658 116.296 245.395 117.055 245.005 117.729C244.615 118.403 244.105 118.976 243.509 119.41C242.913 119.845 242.243 120.132 241.544 120.252C240.845 120.373 240.131 120.325 239.45 120.11C239.217 119.009 238.985 117.908 238.752 116.806C238.405 116.696 238.059 116.586 237.712 116.475C238.8 116.822 237.098 122.066 235.572 126.072C233.52 125.797 230.521 125.744 230.179 125.072C228.541 121.855 228.736 114.191 225.889 112.38C224.462 111.473 222.998 110.645 221.498 109.899C220.71 109.47 219.877 109.158 219.02 108.969C217.272 108.654 215.51 109.274 213.823 109.886C211.83 110.609 209.79 111.36 208.14 112.828C206.731 114.225 205.523 115.867 204.56 117.693C201.302 123.204 198.043 128.715 194.785 134.226C193.814 135.698 193.051 137.334 192.521 139.075C192.272 139.94 192.189 140.857 192.278 141.763C192.367 142.669 192.626 143.542 193.037 144.323C193.47 145.088 194.117 145.665 194.871 145.96C195.626 146.254 196.446 146.25 197.199 145.948C198.143 145.481 199.089 144.422 200.025 144.911C200.734 145.281 200.911 146.346 200.837 147.233C200.656 148.101 200.642 149.003 200.795 149.878C201.221 151.258 202.86 151.738 204.029 151.141C205.166 150.432 206.018 149.247 206.405 147.835C207.532 144.533 207.417 140.88 207.697 137.351C207.978 133.821 208.822 130.047 211.257 127.852C211.986 127.195 213.056 126.722 213.807 127.347C214.088 127.638 214.282 128.023 214.362 128.447C214.442 128.871 214.405 129.313 214.255 129.711C213.941 130.5 213.532 131.234 213.04 131.893C212.208 133.23 211.626 134.749 211.33 136.355C211.034 137.96 211.03 139.619 211.319 141.226L211.816 141.578C213.715 141.015 216.255 142.023 218.776 142.989C216.946 143.611 215.335 144.877 214.173 146.607C211.26 151.279 209.151 155.699 203.388 155.644C202.02 155.631 200.665 155.322 199.297 155.318C197.917 155.221 196.558 155.738 195.505 156.762C194.468 157.922 194.148 159.688 193.261 161C192.095 162.725 190.146 163.427 188.366 164.21C187.065 164.783 185.694 165.555 185.096 166.994C184.72 168.175 184.634 169.45 184.845 170.682C185.046 172.862 185.401 175.34 187.018 176.517C187.623 176.878 188.285 177.097 188.965 177.163C189.645 177.229 190.33 177.139 190.979 176.9C192.662 176.432 194.308 175.551 196.036 175.683C198.75 175.889 200.984 178.866 201.012 181.974C201.026 183.547 200.624 185.351 201.536 186.529C202.394 187.636 204.094 187.439 204.982 186.364C205.395 185.792 205.679 185.114 205.81 184.388C205.94 183.662 205.913 182.91 205.731 182.199C205.354 180.782 204.773 179.446 204.014 178.246C204.917 177.978 205.873 178.077 206.72 178.524C207.567 178.971 208.252 179.74 208.659 180.7C209.262 182.23 209.067 183.996 209.259 185.659C209.451 187.323 210.338 189.172 211.804 189.268C212.283 189.283 212.752 189.107 213.129 188.768C213.507 188.43 213.768 187.951 213.869 187.415C213.884 186.571 213.844 185.727 213.749 184.889C213.799 184.065 214.123 183.294 214.655 182.734C215.186 182.174 215.885 181.868 216.608 181.878C216.162 182.82 216.017 183.909 216.198 184.96C216.378 186.011 216.873 186.957 217.597 187.637C218.713 188.623 220.188 188.844 221.578 189.12C222.968 189.395 224.45 189.831 225.347 191.076C226.841 193.148 225.013 194.082 224.728 195.837C224.379 197.992 225.954 201.174 226.559 203.235C229.339 207.679 232.119 212.124 234.899 216.568C235.519 217.649 236.251 218.64 237.079 219.521C239.823 222.215 244.347 221.949 246.979 219.113C248.254 217.638 249.083 215.734 249.342 213.681C249.602 211.628 249.278 209.534 248.42 207.707C246.794 204.323 243.571 202.228 241.98 198.823C244.628 201.329 247.88 202.857 251.305 203.206C257.364 204.613 263.121 207.372 268.246 211.325C268.487 217.445 270.542 223.288 274.072 227.897C274.707 222.675 276.838 217.84 280.131 214.147C282.272 211.76 285.199 209.836 288.137 210.478C291.075 211.12 293.304 215.402 291.527 218.152C293.016 218.278 294.506 218.405 295.995 218.531C296.662 220.429 297.33 222.326 297.998 224.224C298.117 223.825 298.345 223.48 298.647 223.24C298.95 223 299.312 222.877 299.681 222.889C301.075 223.13 302.053 224.612 303.379 225.159C305.879 226.191 308.551 223.333 308.874 220.319C309.197 217.304 307.942 214.393 306.723 211.695C309.416 212.265 312.197 211.925 314.723 210.717C317.25 209.509 319.414 207.485 320.95 204.893C322.486 202.301 323.327 199.254 323.371 196.124C323.415 192.994 322.659 189.918 321.196 187.271C324.094 183.793 327.505 180.924 331.272 178.794C334.758 176.826 338.571 175.475 341.618 172.714C344.665 169.953 346.802 165.158 345.337 161.042C344.301 158.134 341.705 156.161 340.927 153.15C339.802 148.791 343.22 144.283 347.08 143.194C350.941 142.105 354.973 143.443 358.776 144.771C358.191 140.299 362.727 136.107 366.432 137.695C367.983 136.977 369.535 136.259 371.086 135.541C369.288 140.073 365.39 142.956 362.525 146.702C359.659 150.448 357.953 156.549 360.946 160.162C365.237 155.718 369.527 151.273 373.818 146.829C378.306 142.18 382.794 137.531 387.282 132.883C387.068 132.163 386.854 131.444 386.64 130.724C390.886 128.881 395.459 127.357 399.52 125.068Z" fill="#E6E6E6"/>
<path d="M176.657 184.882C176.484 185.168 176.392 185.507 176.393 185.854C176.395 186.202 176.49 186.54 176.666 186.823C176.896 187.047 177.188 187.172 177.49 187.176C177.792 187.181 178.087 187.065 178.322 186.849C178.783 186.399 179.143 185.83 179.372 185.188C179.595 185.681 179.945 186.084 180.375 186.341C180.805 186.598 181.294 186.698 181.775 186.627C182.737 186.461 183.647 186.027 184.427 185.363C185.045 184.949 185.591 184.408 186.037 183.767C186.258 183.444 186.409 183.066 186.479 182.665C186.55 182.263 186.537 181.848 186.442 181.453C186.21 180.847 185.851 180.317 185.395 179.909C184.26 178.711 183.125 177.512 181.989 176.314L181.605 176.182C181.404 175.939 181.163 175.744 180.895 175.61C180.628 175.475 180.339 175.404 180.046 175.401C179.754 175.397 179.464 175.461 179.194 175.589C178.924 175.717 178.679 175.905 178.474 176.144C177.769 177.046 177.766 178.393 177.874 179.596C177.982 180.8 178.149 182.081 177.68 183.166C177.412 183.787 176.957 184.279 176.657 184.882Z" fill="#E6E6E6"/>
<path d="M242.53 225.822C238.118 224.7 234.079 222.157 230.891 218.495C227.703 214.833 225.499 210.205 224.539 205.157C224.121 202.775 223.931 200.172 222.544 198.33C221.202 196.548 219.009 195.904 216.951 195.904C214.892 195.904 212.863 196.446 210.809 196.592C207.218 196.848 203.412 195.764 200.844 192.883C199.628 191.519 198.707 189.787 197.286 188.711C195.377 187.265 192.846 187.266 190.671 188.085C188.248 188.998 186.309 191.495 183.66 191.151C180.905 190.794 177.711 189.681 176.631 193.827C176.32 195.021 176.426 196.33 176.032 197.491C175.425 199.281 173.814 200.29 172.539 201.541C169.972 204.059 168.607 207.885 168.147 211.716C167.688 215.547 168.043 219.437 168.399 223.283C168.591 225.357 168.844 227.589 170.091 229.112C171.828 231.235 174.744 231.153 177.28 230.914C180.225 230.636 183.171 230.358 186.116 230.08C187.704 229.93 189.513 229.867 190.644 231.15C191.321 231.919 191.608 233.031 192.203 233.884C192.738 234.609 193.472 235.106 194.286 235.294C195.1 235.481 195.945 235.348 196.684 234.916C196.086 236.135 195.761 237.504 195.737 238.902C195.713 240.299 195.99 241.681 196.545 242.927C197.1 244.172 197.915 245.242 198.918 246.041C199.921 246.841 201.081 247.346 202.295 247.511L202.522 247.674C200.637 251.365 198.68 255.509 199.462 259.688C200.132 263.271 202.729 266.144 203.154 269.776C203.544 273.108 202.022 276.516 202.695 279.789C203.377 283.103 206.306 285.414 209.277 285.661C212.248 285.907 215.167 284.401 217.469 282.239C219.77 280.078 221.55 277.293 223.304 274.541C224.387 272.842 225.497 271.073 225.869 269.014C226.264 266.823 225.806 264.395 226.738 262.428C227.813 260.16 230.365 259.31 231.653 257.191C233.321 254.448 232.338 250.712 232.707 247.398C233.619 239.197 242.737 234.086 242.53 225.822Z" fill="#E6E6E6"/>
<path d="M241.213 253.82C240.964 255.1 239.914 255.943 238.915 256.588C237.915 257.233 236.815 257.883 236.306 259.058C235.784 260.262 236.023 261.697 236.296 263.004C236.863 265.723 237.532 268.411 238.302 271.067C239.794 267.846 241.096 264.514 242.201 261.095C242.669 259.822 242.958 258.472 243.057 257.096C243.102 256.408 243.021 255.715 242.819 255.065C242.616 254.414 242.296 253.819 241.88 253.318L241.213 253.82Z" fill="#E6E6E6"/>
<path d="M302.57 239.557C301.318 237.904 300.065 236.251 298.812 234.598C297.955 233.468 296.978 232.261 295.68 232.072L295.145 232.462C296.232 235.418 297.318 238.374 298.404 241.33C298.789 242.68 299.466 243.897 300.372 244.867C301.344 245.74 302.921 245.908 303.732 244.841C303.994 244.441 304.158 243.97 304.21 243.474C304.262 242.978 304.199 242.476 304.027 242.016C303.673 241.104 303.18 240.271 302.57 239.557Z" fill="#E6E6E6"/>
<path d="M314.71 242.722C315.184 242.534 315.618 242.235 315.984 241.844C316.351 241.454 316.642 240.98 316.84 240.453C317.228 239.398 317.484 238.286 317.601 237.149C317.816 235.669 318.03 234.189 318.244 232.709L317.964 232.627C317.692 232.478 317.381 232.446 317.091 232.539C316.8 232.631 316.548 232.84 316.382 233.129C316.067 233.716 315.828 234.354 315.673 235.02C315.594 235.353 315.45 235.662 315.252 235.922C315.053 236.182 314.806 236.388 314.529 236.524C313.523 236.871 312.571 235.653 311.521 235.701C311.097 235.762 310.703 235.986 310.405 236.336C310.107 236.686 309.921 237.142 309.878 237.628C309.817 238.609 310.061 239.583 310.565 240.38C311.461 241.968 313.122 243.244 314.71 242.722Z" fill="#E6E6E6"/>
<path d="M321.637 245.528L324.524 236.837C323.355 237.807 322.458 239.146 321.945 240.69C321.432 242.234 321.325 243.915 321.637 245.528Z" fill="#E6E6E6"/>
<path d="M336.372 238.522L335.788 238.551C335.527 239.14 335.389 239.791 335.383 240.452C335.378 241.113 335.505 241.766 335.757 242.362C336.269 243.549 337.014 244.584 337.935 245.388C339.361 246.733 340.989 247.772 342.74 248.454C345.307 249.31 347.962 249.777 350.636 249.844C352.164 249.958 353.693 250.072 355.221 250.187C355.949 250.241 356.891 250.136 357.094 249.335C357.261 248.673 356.768 248.051 356.307 247.607C352.263 243.718 347.361 241.175 342.137 240.257C340.155 239.912 338.052 239.771 336.372 238.522Z" fill="#E6E6E6"/>
<path d="M352.687 261.586C351.588 260.368 350.489 259.149 349.39 257.931C348.321 256.747 346.719 255.491 345.494 256.458C344.79 257.014 344.573 258.099 343.976 258.8C343.612 259.172 343.173 259.435 342.698 259.564C342.223 259.693 341.728 259.685 341.257 259.54C340.318 259.238 339.43 258.758 338.632 258.118L335.904 256.184C334.963 255.516 334.021 254.849 333.08 254.181L330.956 256.54C331.048 255.379 329.694 254.625 328.756 255.084C328.311 255.37 327.927 255.767 327.634 256.245C327.341 256.724 327.146 257.271 327.064 257.848C326.908 259 326.636 260.128 326.252 261.208C325.174 263.568 322.555 264.267 320.252 264.662C317.948 265.057 315.338 265.614 314.105 267.873C313.078 269.754 313.386 272.17 313.729 274.352L315.027 282.609C315.089 283.609 315.44 284.557 316.025 285.304C317.166 286.455 318.933 285.755 320.325 285.054C323.235 283.454 326.357 282.42 329.565 281.993C332.8 281.579 336.056 282.532 338.719 284.673C340.37 286.109 341.629 288.098 343.378 289.374C344.583 290.202 345.938 290.706 347.338 290.845C348.739 290.985 350.149 290.758 351.462 290.18C354.092 288.983 356.269 286.765 357.609 283.915C358.8 281.402 359.397 278.578 359.343 275.721C359.288 272.865 358.584 270.073 357.299 267.622C355.987 265.399 354.438 263.371 352.687 261.586Z" fill="#E6E6E6"/>
<path d="M349.446 295.225C349.182 295.591 349.028 296.044 349.006 296.517C348.984 296.991 349.095 297.46 349.323 297.856C349.802 298.64 350.532 299.178 351.355 299.351C352.17 299.518 353.001 299.561 353.826 299.48L353.852 298.776C353.632 297.54 353.133 296.39 352.404 295.443C351.608 294.578 350.201 294.312 349.446 295.225Z" fill="#E6E6E6"/>
<path d="M377.753 295.978L377.359 295.813C376.421 297.429 375.483 299.045 374.545 300.66C374.041 301.53 373.514 302.574 373.822 303.556C374.186 304.718 375.533 305.059 376.58 304.751C377.378 304.504 378.099 304.001 378.656 303.302C379.213 302.602 379.585 301.736 379.726 300.805C379.842 299.868 379.717 298.913 379.366 298.057C379.016 297.2 378.456 296.478 377.753 295.978Z" fill="#E6E6E6"/>
<path d="M384.904 290.851L382.314 288.498C382.28 289.589 382.245 290.681 382.21 291.772L382.113 291.774C382.71 292.373 383.274 293.013 383.801 293.692C384.407 294.281 385.424 294.551 385.942 293.861C386.097 293.614 386.185 293.32 386.195 293.016C386.205 292.712 386.137 292.412 385.998 292.153C385.713 291.639 385.341 291.197 384.904 290.851Z" fill="#E6E6E6"/>
<path d="M338.122 188.498C337.035 188.459 335.832 188.384 334.99 189.17C334.713 189.453 334.47 189.776 334.268 190.132L333.971 190.607C333.527 191.272 333.139 191.984 332.814 192.733C332.644 193.084 332.542 193.473 332.515 193.873C332.488 194.273 332.536 194.675 332.657 195.052C332.726 195.232 332.83 195.393 332.96 195.522C333.09 195.652 333.243 195.747 333.408 195.801C333.574 195.856 333.748 195.868 333.918 195.837C334.088 195.806 334.251 195.732 334.393 195.622C334.858 195.13 334.749 194.239 335.1 193.637C335.255 193.41 335.453 193.227 335.68 193.103C335.907 192.979 336.156 192.917 336.408 192.922C336.909 192.936 337.409 193.001 337.901 193.115C339.263 193.328 340.65 193.092 341.898 192.433C343.146 191.774 344.204 190.721 344.945 189.398C345.686 188.074 346.08 186.536 346.081 184.965C346.082 183.394 345.69 181.855 344.95 180.531L344.863 180.226C344.11 180.193 343.372 180.462 342.775 180.988C342.179 181.513 341.763 182.261 341.599 183.1C341.356 184.547 341.872 186.228 341.104 187.412C340.457 188.41 339.208 188.537 338.122 188.498Z" fill="#E6E6E6"/>
<path d="M347.848 173.159L347.683 173.143C346.711 173.346 345.778 173.743 344.927 174.316C344.648 174.465 344.425 174.723 344.299 175.044C344.262 175.215 344.263 175.393 344.301 175.563C344.34 175.733 344.414 175.889 344.519 176.018C344.729 176.273 344.977 176.486 345.249 176.647C345.655 176.957 346.104 177.186 346.577 177.325C346.814 177.392 347.062 177.391 347.299 177.321C347.536 177.251 347.753 177.115 347.933 176.925C348.101 176.661 348.216 176.358 348.271 176.038C348.326 175.718 348.319 175.387 348.251 175.07C348.173 174.419 348.038 173.779 347.848 173.159Z" fill="#E6E6E6"/>
<path d="M331.101 188.867C331.36 188.391 331.545 187.867 331.646 187.318C331.747 186.893 331.848 186.467 331.95 186.041L330.867 185.289C330.349 185.596 329.872 185.985 329.449 186.444C329.238 186.675 329.072 186.953 328.96 187.261C328.848 187.569 328.793 187.9 328.798 188.234C328.813 188.567 328.926 188.885 329.12 189.136C329.313 189.386 329.574 189.554 329.862 189.613C330.107 189.622 330.35 189.557 330.567 189.427C330.784 189.296 330.968 189.103 331.101 188.867Z" fill="#E6E6E6"/>
<path d="M213.107 73.7614C212.679 74.0665 212.8 74.8041 212.974 75.3456C213.173 75.9674 213.373 76.5891 213.572 77.2108L213.851 76.0039C214.096 75.5358 214.205 74.9906 214.16 74.4475C214.063 73.917 213.51 73.4748 213.107 73.7614Z" fill="#E6E6E6"/>
<path d="M483.531 185.754H302.373C298.006 185.749 293.82 183.764 290.733 180.235C287.645 176.707 285.909 171.923 285.904 166.933V18.8209C285.909 13.831 287.645 9.04716 290.733 5.51878C293.82 1.99041 298.006 0.00567659 302.373 0H483.531C487.897 0.00567442 492.083 1.99041 495.171 5.51878C498.258 9.04716 499.995 13.831 500 18.8209V166.933C499.995 171.923 498.258 176.707 495.171 180.235C492.083 183.764 487.897 185.749 483.531 185.754Z" fill="white"/>
<path d="M476.627 194.754H295.469C291.103 194.749 286.917 192.764 283.829 189.235C280.742 185.707 279.005 180.923 279 175.933V27.8209C279.005 22.831 280.742 18.0472 283.829 14.5188C286.917 10.9904 291.103 9.00568 295.469 9H476.627C480.994 9.00567 485.18 10.9904 488.267 14.5188C491.355 18.0472 493.091 22.831 493.096 27.8209V175.933C493.092 180.923 491.355 185.707 488.267 189.235C485.18 192.764 480.994 194.749 476.627 194.754Z" fill="white"/>
<path d="M483.531 185.754H302.373C298.006 185.749 293.82 183.764 290.733 180.235C287.645 176.707 285.909 171.923 285.904 166.933V18.8209C285.909 13.831 287.645 9.04716 290.733 5.51878C293.82 1.99041 298.006 0.00567659 302.373 0H483.531C487.897 0.00567442 492.083 1.99041 495.171 5.51878C498.258 9.04716 499.995 13.831 500 18.8209V166.933C499.995 171.923 498.258 176.707 495.171 180.235C492.083 183.764 487.897 185.749 483.531 185.754ZM302.373 1.6366C298.386 1.64171 294.564 3.45383 291.745 6.67541C288.926 9.89698 287.34 14.2649 287.336 18.8209V166.933C287.34 171.489 288.926 175.857 291.745 179.079C294.564 182.3 298.386 184.112 302.373 184.118H483.531C487.518 184.112 491.34 182.3 494.159 179.079C496.978 175.857 498.563 171.489 498.568 166.933V18.8209C498.563 14.2649 496.978 9.89698 494.159 6.67541C491.34 3.45383 487.518 1.64171 483.531 1.6366H302.373Z" fill="#3F3D56"/>
<path d="M351.661 22.5516H323.019C322.26 22.5516 321.531 22.2067 320.994 21.5929C320.457 20.979 320.155 20.1465 320.155 19.2784C320.155 18.4103 320.457 17.5777 320.994 16.9639C321.531 16.35 322.26 16.0052 323.019 16.0052H351.661C352.421 16.0052 353.149 16.35 353.686 16.9639C354.223 17.5777 354.525 18.4103 354.525 19.2784C354.525 20.1465 354.223 20.979 353.686 21.5929C353.149 22.2067 352.421 22.5516 351.661 22.5516Z" fill="#CCCCCC"/>
<path d="M413.957 96.1986H323.019C322.26 96.1986 321.531 95.8537 320.994 95.2399C320.457 94.6261 320.155 93.7935 320.155 92.9254C320.155 92.0573 320.457 91.2247 320.994 90.6109C321.531 89.997 322.26 89.6522 323.019 89.6522H413.957C414.716 89.6522 415.445 89.997 415.982 90.6109C416.519 91.2247 416.821 92.0573 416.821 92.9254C416.821 93.7935 416.519 94.6261 415.982 95.2399C415.445 95.8537 414.716 96.1986 413.957 96.1986Z" fill="#CCCCCC"/>
<path d="M339.127 75.5349C349.733 75.5349 358.331 65.7094 358.331 53.589C358.331 41.4686 349.733 31.6431 339.127 31.6431C328.522 31.6431 319.924 41.4686 319.924 53.589C319.924 65.7094 328.522 75.5349 339.127 75.5349Z" fill="#01AF00"/>
<path d="M324.452 158.707H320.155V160.343H324.452V158.707Z" fill="#3F3D56"/>
<path d="M450.596 160.343H441.585V158.707H450.596V160.343ZM432.575 160.343H423.565V158.707H432.575V160.343ZM414.554 160.343H405.544V158.707H414.554V160.343ZM396.534 160.343H387.524V158.707H396.534L396.534 160.343ZM378.513 160.343H369.503V158.707H378.513V160.343ZM360.493 160.343H351.483V158.707H360.493L360.493 160.343ZM342.472 160.343H333.462V158.707H342.472V160.343Z" fill="#3F3D56"/>
<path d="M463.902 158.707H459.606V160.343H463.902V158.707Z" fill="#3F3D56"/>
<path d="M430 125H426V157H430V125Z" fill="#01AF00"/>
<path d="M411.58 129H408V156.822H411.58V129Z" fill="#01AF00"/>
<path d="M393.58 145H390V157.275H393.58V145Z" fill="#01AF00"/>
<path d="M447.58 117H444V157.097H447.58V117Z" fill="#01AF00"/>
<path d="M64.4128 185.393C66.7855 185.393 68.709 183.195 68.709 180.484C68.709 177.772 66.7855 175.574 64.4128 175.574C62.04 175.574 60.1165 177.772 60.1165 180.484C60.1165 183.195 62.04 185.393 64.4128 185.393Z" fill="#01AF00"/>
<path d="M75.8694 161.663C78.2422 161.663 80.1657 159.464 80.1657 156.753C80.1657 154.041 78.2422 151.843 75.8694 151.843C73.4967 151.843 71.5732 154.041 71.5732 156.753C71.5732 159.464 73.4967 161.663 75.8694 161.663Z" fill="#01AF00"/>
<path d="M201.893 142.842C204.265 142.842 206.189 140.644 206.189 137.932C206.189 135.22 204.265 133.022 201.893 133.022C199.52 133.022 197.596 135.22 197.596 137.932C197.596 140.644 199.52 142.842 201.893 142.842Z" fill="#01AF00"/>
<path d="M103.275 488.907L109.756 488.906L112.838 460.342L103.274 460.343L103.275 488.907Z" fill="#FFB6B6"/>
<path d="M103.047 496.632L122.974 496.632V496.344C122.974 493.993 122.157 491.738 120.702 490.076C119.248 488.414 117.275 487.48 115.218 487.48L111.578 484.324L104.786 487.48L103.047 487.481L103.047 496.632Z" fill="#2F2E41"/>
<path d="M151.966 488.907L158.446 488.906L161.529 460.342L151.965 460.343L151.966 488.907Z" fill="#FFB6B6"/>
<path d="M151.738 496.632L171.665 496.632V496.344C171.665 493.993 170.848 491.738 169.393 490.076C167.939 488.414 165.966 487.48 163.909 487.48L160.269 484.324L153.477 487.48L151.738 487.481L151.738 496.632Z" fill="#2F2E41"/>
<path d="M103.023 256.542L114.524 254.659C118.413 262.092 119.795 281.875 119.795 281.875L131.05 312.445C131.795 313.024 132.394 313.816 132.786 314.744C133.178 315.671 133.35 316.699 133.283 317.726C133.217 318.753 132.915 319.742 132.407 320.593C131.9 321.444 131.206 322.128 130.394 322.575C129.582 323.022 128.682 323.216 127.783 323.139C126.885 323.062 126.02 322.716 125.276 322.135C124.532 321.554 123.935 320.76 123.545 319.832C123.154 318.904 122.985 317.874 123.054 316.848L104.575 281.265L103.023 256.542Z" fill="#FFB6B6"/>
<path d="M109.256 220.056C107.476 220.371 105.779 221.13 104.285 222.28C102.791 223.43 101.537 224.942 100.613 226.709C99.6883 228.475 99.1159 230.453 98.9362 232.501C98.7566 234.549 98.9741 236.618 99.5734 238.559L102.014 246.464C102.014 246.464 98.9397 270.266 104.006 276.985L119.552 275.376C119.552 275.376 116.71 263.368 118.892 257.558C120.228 253.999 120.154 241.71 118.837 231.712C117.832 224.078 115.932 218.874 109.256 220.056Z" fill="#3F3D56"/>
<path d="M162.869 291.772C162.869 291.772 174.851 305.128 172.292 308.212C169.733 311.297 163.88 315.618 169.313 316.321C174.746 317.025 177 318.55 172.292 319.833C167.585 321.116 168.313 324.411 168.313 324.411C168.313 324.411 175.399 362.964 170.029 388.332C170.029 388.332 167.04 457.619 165.165 463.015C163.289 468.411 162.573 465.137 163.289 468.411C164.005 471.684 165.437 465.956 164.005 471.684C163.224 474.676 162.605 477.72 162.152 480.8L148.145 478.345C148.145 478.345 145.89 470.221 148.145 468.088C150.4 465.956 152.423 467.27 149.98 462.521C147.536 457.773 146.82 464.319 147.536 457.773C148.252 451.226 145.263 415.82 149.98 397.109L141.263 344.604L127.424 398.97C127.424 398.97 120.084 465.367 117.699 467.707C115.314 470.047 111.734 465.956 115.314 470.047C118.894 474.139 118.832 473.435 118.894 474.139C119.561 481.644 99.0613 473.435 99.0613 473.435C99.1753 471.528 99.1753 469.614 99.0613 467.707C98.8453 465.956 101.425 465.395 99.0613 463.63C96.6972 461.864 100.215 463.615 100.215 463.615C100.215 463.615 105.501 414.632 109.523 399.788L114.178 327.502C114.178 327.502 114.473 328.944 114.178 325.439C113.882 321.935 111.734 324.39 113.882 321.935C116.03 319.48 117.462 318.229 116.03 316.399C114.598 314.57 110.648 310.869 112.981 308.628C115.314 306.387 119.906 291.772 119.906 291.772L164.659 292.181" fill="#2F2E41"/>
<path d="M146.042 210.618L137.973 200.235L125.222 201.854L117.059 214.91C112.714 216.051 108.917 219.053 106.449 223.296C103.981 227.54 103.03 232.703 103.792 237.723C106.96 258.57 117.726 278.788 114.171 289.074C108.775 304.687 108.445 311.055 121.362 308.866C134.279 306.677 177.553 301.63 169.163 292.042C160.773 282.454 158.93 266.433 158.93 266.433L158.594 229.777C158.951 227.567 158.903 225.295 158.454 223.107C158.006 220.918 157.165 218.859 155.986 217.059C154.807 215.26 153.315 213.758 151.604 212.65C149.892 211.542 147.999 210.85 146.042 210.618Z" fill="#3F3D56"/>
<path d="M143.838 250.814L155.338 248.931C159.227 256.364 160.61 276.147 160.61 276.147L171.864 306.717C172.61 307.296 173.208 308.088 173.6 309.016C173.992 309.943 174.164 310.971 174.097 311.998C174.031 313.025 173.729 314.014 173.222 314.865C172.715 315.716 172.02 316.4 171.209 316.847C170.397 317.293 169.496 317.488 168.598 317.411C167.699 317.334 166.835 316.987 166.09 316.407C165.346 315.826 164.749 315.032 164.359 314.104C163.969 313.176 163.8 312.146 163.868 311.12L145.389 275.537L143.838 250.814Z" fill="#FFB6B6"/>
<path d="M150.071 214.327C148.291 214.642 146.593 215.402 145.1 216.552C143.606 217.702 142.352 219.214 141.427 220.98C140.503 222.747 139.93 224.725 139.751 226.773C139.571 228.821 139.789 230.889 140.388 232.831L142.828 240.736C142.828 240.736 139.754 264.538 144.82 271.256L160.367 269.648C160.367 269.648 157.524 257.64 159.706 251.83C161.043 248.271 160.968 235.982 159.652 225.984C158.646 218.35 156.746 213.146 150.071 214.327Z" fill="#3F3D56"/>
<path d="M128.091 199.341C136.603 199.341 143.503 191.455 143.503 181.728C143.503 172.001 136.603 164.116 128.091 164.116C119.58 164.116 112.68 172.001 112.68 181.728C112.68 191.455 119.58 199.341 128.091 199.341Z" fill="#FFB6B6"/>
<path d="M125.257 198.969C129.549 197.74 129.695 196.339 133.988 195.11C135.354 194.718 136.938 194.102 137.343 192.56C137.439 191.996 137.419 191.414 137.285 190.86C137.151 190.306 136.907 189.795 136.571 189.368C135.895 188.521 135.261 187.631 134.674 186.703C134.284 185.957 134.06 185.113 134.02 184.246C133.979 183.378 134.125 182.513 134.443 181.724C134.761 180.935 135.242 180.247 135.845 179.718C136.449 179.189 137.155 178.837 137.904 178.69C139.232 178.43 140.601 178.832 141.938 178.638C143.77 178.371 146.466 170.601 145.291 168.971C144.147 167.385 142.27 166.439 141.64 164.514C141.227 163.255 141.453 161.848 141.269 160.52C140.996 158.552 137.511 164.002 137.975 162.081C139.113 157.368 119.856 156.626 117.851 162.672C117.102 164.932 115.074 165.291 113.514 166.922C112.491 167.991 110.045 171.412 109.691 173.256C109.397 175.12 109.454 177.034 109.857 178.872C111.456 187.485 114.099 195.119 121.135 198.707" fill="#2F2E41"/>
<path d="M3.72468 497.749L282.784 498C282.897 498 283.008 497.975 283.111 497.927C283.215 497.878 283.309 497.806 283.389 497.716C283.468 497.625 283.531 497.518 283.574 497.399C283.617 497.281 283.64 497.154 283.64 497.026C283.64 496.897 283.617 496.771 283.574 496.652C283.531 496.534 283.468 496.426 283.389 496.336C283.309 496.245 283.215 496.174 283.111 496.125C283.008 496.076 282.897 496.051 282.784 496.051L3.72468 495.8C3.61251 495.799 3.50138 495.824 3.39766 495.873C3.29393 495.922 3.19965 495.994 3.12022 496.084C3.04078 496.175 2.97777 496.282 2.93477 496.401C2.89177 496.519 2.86963 496.646 2.86963 496.774C2.86963 496.902 2.89177 497.029 2.93477 497.148C2.97777 497.266 3.04078 497.374 3.12022 497.464C3.19965 497.555 3.29393 497.626 3.39766 497.675C3.50138 497.724 3.61251 497.749 3.72468 497.749Z" fill="#CACACA"/>
</g>
<path d="M282.185 498.421L548.554 123.391" stroke="#CBCBCB" stroke-width="2" stroke-linecap="round"/>
<defs>
<clipPath id="clip0_15_2">
<rect width="500" height="498" fill="white"/>
</clipPath>
</defs>
</svg>
