<svg width="740" height="498" viewBox="0 0 740 498" fill="none" xmlns="http://www.w3.org/2000/svg">
<g filter="url(#filter0_d_23_1225)">
<circle cx="370" cy="249" r="198" stroke="#E2E8F0" stroke-width="4" shape-rendering="crispEdges"/>
</g>
<g filter="url(#filter1_d_23_1225)">
<rect x="270" y="29" width="200" height="40" rx="10" fill="#E2E8F0" shape-rendering="crispEdges"/>
<path d="M290.359 36.5938C291.88 36.5938 293.12 36.8021 294.078 37.2188C295.057 37.6354 295.911 38.1771 296.641 38.8438V41.9375C296.182 41.6042 295.661 41.2396 295.078 40.8438C294.516 40.4479 293.849 40.1042 293.078 39.8125C292.328 39.5 291.422 39.3438 290.359 39.3438C288.797 39.3438 287.401 39.6979 286.172 40.4062C284.943 41.1146 283.974 42.0938 283.266 43.3438C282.557 44.5729 282.203 45.9688 282.203 47.5312C282.203 49.0938 282.557 50.4896 283.266 51.7188C283.974 52.9479 284.943 53.9271 286.172 54.6562C287.401 55.3646 288.797 55.7188 290.359 55.7188C291.964 55.7188 293.328 55.4583 294.453 54.9375C295.599 54.3958 296.536 53.8438 297.266 53.2812V56.0938C296.536 56.7396 295.578 57.3021 294.391 57.7812C293.224 58.2396 291.88 58.4688 290.359 58.4688C288.776 58.4688 287.318 58.1875 285.984 57.625C284.651 57.0417 283.484 56.25 282.484 55.25C281.484 54.25 280.703 53.0938 280.141 51.7812C279.599 50.4479 279.328 49.0312 279.328 47.5312C279.328 46.0312 279.599 44.625 280.141 43.3125C280.703 41.9792 281.484 40.8125 282.484 39.8125C283.484 38.8125 284.651 38.0312 285.984 37.4688C287.318 36.8854 288.776 36.5938 290.359 36.5938ZM304.047 42.375V45.5C304.651 44.4583 305.38 43.625 306.234 43C307.089 42.375 307.964 42.0625 308.859 42.0625C309.464 42.0625 310.005 42.1667 310.484 42.375V45.3438C309.818 44.9479 309.151 44.75 308.484 44.75C307.422 44.75 306.557 45.125 305.891 45.875C305.245 46.625 304.63 47.5208 304.047 48.5625V58H301.484V42.375H304.047ZM320.203 42.0625C321.807 42.0625 323.141 42.3958 324.203 43.0625C325.266 43.7292 326.057 44.6354 326.578 45.7812C327.12 46.9271 327.391 48.2188 327.391 49.6562V51.1875H315.391C315.516 52.0625 315.818 52.8646 316.297 53.5938C316.776 54.3229 317.401 54.9062 318.172 55.3438C318.943 55.7604 319.828 55.9688 320.828 55.9688C321.953 55.9688 323.005 55.6875 323.984 55.125C324.964 54.5417 325.786 53.9062 326.453 53.2188L326.422 56C326.13 56.3542 325.693 56.7292 325.109 57.125C324.547 57.5 323.891 57.8125 323.141 58.0625C322.411 58.3333 321.641 58.4688 320.828 58.4688C319.245 58.4688 317.839 58.0938 316.609 57.3438C315.38 56.5938 314.411 55.6042 313.703 54.375C313.016 53.125 312.672 51.7604 312.672 50.2812C312.672 48.8021 312.995 47.4375 313.641 46.1875C314.286 44.9375 315.172 43.9375 316.297 43.1875C317.443 42.4375 318.745 42.0625 320.203 42.0625ZM320.203 44.5625C318.911 44.5625 317.849 45 317.016 45.875C316.182 46.7292 315.661 47.7708 315.453 49H324.859C324.755 47.9792 324.464 47.1458 323.984 46.5C323.526 45.8542 322.964 45.375 322.297 45.0625C321.63 44.7292 320.932 44.5625 320.203 44.5625ZM338.672 42.0625C339.818 42.0625 340.807 42.25 341.641 42.625C342.474 42.9792 343.047 43.3021 343.359 43.5938V46.1875C342.776 45.75 342.109 45.375 341.359 45.0625C340.609 44.7292 339.714 44.5625 338.672 44.5625C337.568 44.5625 336.599 44.8333 335.766 45.375C334.932 45.8958 334.286 46.5938 333.828 47.4688C333.391 48.3229 333.172 49.2604 333.172 50.2812C333.172 51.2812 333.391 52.2188 333.828 53.0938C334.286 53.9479 334.932 54.6458 335.766 55.1875C336.599 55.7083 337.568 55.9688 338.672 55.9688C339.714 55.9688 340.609 55.8125 341.359 55.5C342.109 55.1667 342.776 54.7812 343.359 54.3438V56.9375C343.047 57.25 342.474 57.5833 341.641 57.9375C340.807 58.2917 339.818 58.4688 338.672 58.4688C337.089 58.4688 335.682 58.0938 334.453 57.3438C333.224 56.5938 332.255 55.6042 331.547 54.375C330.859 53.125 330.516 51.7604 330.516 50.2812C330.516 48.8021 330.859 47.4375 331.547 46.1875C332.255 44.9375 333.224 43.9375 334.453 43.1875C335.682 42.4375 337.089 42.0625 338.672 42.0625ZM350.078 34.875C350.682 34.875 351.182 35.0938 351.578 35.5312C351.995 35.9479 352.203 36.4375 352.203 37C352.203 37.5417 351.995 38.0312 351.578 38.4688C351.182 38.9062 350.682 39.125 350.078 39.125C349.474 39.125 348.964 38.9062 348.547 38.4688C348.151 38.0312 347.953 37.5417 347.953 37C347.953 36.4375 348.151 35.9479 348.547 35.5312C348.964 35.0938 349.474 34.875 350.078 34.875ZM351.672 42.375V58H349.109V44.7812H346.641V42.375H351.672ZM359.766 42.375V44.375C360.266 43.8125 360.901 43.2917 361.672 42.8125C362.464 42.3125 363.391 42.0625 364.453 42.0625C365.578 42.0625 366.63 42.3333 367.609 42.875C368.589 43.3958 369.339 44.1875 369.859 45.25C370.589 44.375 371.38 43.625 372.234 43C373.089 42.375 374.089 42.0625 375.234 42.0625C376.297 42.0625 377.286 42.3021 378.203 42.7812C379.141 43.2396 379.891 43.9479 380.453 44.9062C381.036 45.8438 381.328 47.0312 381.328 48.4688V58H378.766L378.734 48.7188C378.734 47.3646 378.38 46.3333 377.672 45.625C376.984 44.9167 376.026 44.5625 374.797 44.5625C373.901 44.5625 373.12 44.8438 372.453 45.4062C371.786 45.9688 371.151 46.625 370.547 47.375V58H367.984L367.953 48.7188C367.953 47.3646 367.599 46.3333 366.891 45.625C366.203 44.9167 365.245 44.5625 364.016 44.5625C363.161 44.5625 362.38 44.8125 361.672 45.3125C360.984 45.8125 360.349 46.4167 359.766 47.125V58H357.203V42.375H359.766ZM388.672 34.875C389.276 34.875 389.776 35.0938 390.172 35.5312C390.589 35.9479 390.797 36.4375 390.797 37C390.797 37.5417 390.589 38.0312 390.172 38.4688C389.776 38.9062 389.276 39.125 388.672 39.125C388.068 39.125 387.557 38.9062 387.141 38.4688C386.745 38.0312 386.547 37.5417 386.547 37C386.547 36.4375 386.745 35.9479 387.141 35.5312C387.557 35.0938 388.068 34.875 388.672 34.875ZM390.266 42.375V58H387.703V44.7812H385.234V42.375H390.266ZM402.234 42.0625C403.839 42.0625 405.172 42.3958 406.234 43.0625C407.297 43.7292 408.089 44.6354 408.609 45.7812C409.151 46.9271 409.422 48.2188 409.422 49.6562V51.1875H397.422C397.547 52.0625 397.849 52.8646 398.328 53.5938C398.807 54.3229 399.432 54.9062 400.203 55.3438C400.974 55.7604 401.859 55.9688 402.859 55.9688C403.984 55.9688 405.036 55.6875 406.016 55.125C406.995 54.5417 407.818 53.9062 408.484 53.2188L408.453 56C408.161 56.3542 407.724 56.7292 407.141 57.125C406.578 57.5 405.922 57.8125 405.172 58.0625C404.443 58.3333 403.672 58.4688 402.859 58.4688C401.276 58.4688 399.87 58.0938 398.641 57.3438C397.411 56.5938 396.443 55.6042 395.734 54.375C395.047 53.125 394.703 51.7604 394.703 50.2812C394.703 48.8021 395.026 47.4375 395.672 46.1875C396.318 44.9375 397.203 43.9375 398.328 43.1875C399.474 42.4375 400.776 42.0625 402.234 42.0625ZM402.234 44.5625C400.943 44.5625 399.88 45 399.047 45.875C398.214 46.7292 397.693 47.7708 397.484 49H406.891C406.786 47.9792 406.495 47.1458 406.016 46.5C405.557 45.8542 404.995 45.375 404.328 45.0625C403.661 44.7292 402.964 44.5625 402.234 44.5625ZM416.203 42.375V44.8438C416.536 44.4271 416.964 44.0104 417.484 43.5938C418.005 43.1562 418.589 42.7917 419.234 42.5C419.901 42.2083 420.589 42.0625 421.297 42.0625C422.359 42.0625 423.328 42.3021 424.203 42.7812C425.078 43.2396 425.776 43.9479 426.297 44.9062C426.818 45.8438 427.078 47.0312 427.078 48.4688V58H424.516L424.484 48.7188C424.484 47.3646 424.182 46.3333 423.578 45.625C422.995 44.9167 422.089 44.5625 420.859 44.5625C420.026 44.5625 419.193 44.875 418.359 45.5C417.547 46.1042 416.828 46.8125 416.203 47.625V58H413.641V42.375H416.203ZM436.234 37.875V42.375H440.797V44.7812H436.234V53.9375C436.234 54.5833 436.401 55.0938 436.734 55.4688C437.068 55.8438 437.578 56.0312 438.266 56.0312C438.891 56.0312 439.411 55.9583 439.828 55.8125C440.245 55.6458 440.609 55.4688 440.922 55.2812V57.375C440.505 57.7083 440.057 57.9688 439.578 58.1562C439.12 58.3646 438.495 58.4688 437.703 58.4688C436.37 58.4688 435.359 58.0729 434.672 57.2812C434.005 56.4688 433.672 55.3958 433.672 54.0625V44.7812H430.672V44.0312C431.693 43.5729 432.547 42.8229 433.234 41.7812C433.922 40.7188 434.526 39.4167 435.047 37.875H436.234ZM452.516 42.0625C454.099 42.0625 455.505 42.4375 456.734 43.1875C457.964 43.9375 458.922 44.9375 459.609 46.1875C460.318 47.4375 460.672 48.8021 460.672 50.2812C460.672 51.7604 460.318 53.125 459.609 54.375C458.922 55.6042 457.964 56.5938 456.734 57.3438C455.505 58.0938 454.099 58.4688 452.516 58.4688C450.932 58.4688 449.526 58.0938 448.297 57.3438C447.068 56.5938 446.099 55.6042 445.391 54.375C444.703 53.125 444.359 51.7604 444.359 50.2812C444.359 48.8021 444.703 47.4375 445.391 46.1875C446.099 44.9375 447.068 43.9375 448.297 43.1875C449.526 42.4375 450.932 42.0625 452.516 42.0625ZM452.516 44.5625C451.411 44.5625 450.443 44.8333 449.609 45.375C448.776 45.8958 448.13 46.5938 447.672 47.4688C447.234 48.3229 447.016 49.2604 447.016 50.2812C447.016 51.2812 447.234 52.2188 447.672 53.0938C448.13 53.9479 448.776 54.6458 449.609 55.1875C450.443 55.7083 451.411 55.9688 452.516 55.9688C453.641 55.9688 454.609 55.7083 455.422 55.1875C456.255 54.6458 456.891 53.9479 457.328 53.0938C457.786 52.2188 458.016 51.2812 458.016 50.2812C458.016 49.2604 457.786 48.3229 457.328 47.4688C456.891 46.5938 456.255 45.8958 455.422 45.375C454.609 44.8333 453.641 44.5625 452.516 44.5625Z" fill="#020617"/>
</g>
<g filter="url(#filter2_d_23_1225)">
<rect x="270" y="429" width="200" height="40" rx="10" fill="#E2E8F0" shape-rendering="crispEdges"/>
<path d="M322.672 446.719V449.375H313.672V458H310.859V437.062H324.547V439.719H313.672V446.719H322.672ZM332.422 434.875C333.026 434.875 333.526 435.094 333.922 435.531C334.339 435.948 334.547 436.438 334.547 437C334.547 437.542 334.339 438.031 333.922 438.469C333.526 438.906 333.026 439.125 332.422 439.125C331.818 439.125 331.307 438.906 330.891 438.469C330.495 438.031 330.297 437.542 330.297 437C330.297 436.438 330.495 435.948 330.891 435.531C331.307 435.094 331.818 434.875 332.422 434.875ZM334.016 442.375V458H331.453V444.781H328.984V442.375H334.016ZM342.109 442.375V445.5C342.714 444.458 343.443 443.625 344.297 443C345.151 442.375 346.026 442.062 346.922 442.062C347.526 442.062 348.068 442.167 348.547 442.375V445.344C347.88 444.948 347.214 444.75 346.547 444.75C345.484 444.75 344.62 445.125 343.953 445.875C343.307 446.625 342.693 447.521 342.109 448.562V458H339.547V442.375H342.109ZM354.391 442.375V444.375C354.891 443.812 355.526 443.292 356.297 442.812C357.089 442.312 358.016 442.062 359.078 442.062C360.203 442.062 361.255 442.333 362.234 442.875C363.214 443.396 363.964 444.188 364.484 445.25C365.214 444.375 366.005 443.625 366.859 443C367.714 442.375 368.714 442.062 369.859 442.062C370.922 442.062 371.911 442.302 372.828 442.781C373.766 443.24 374.516 443.948 375.078 444.906C375.661 445.844 375.953 447.031 375.953 448.469V458H373.391L373.359 448.719C373.359 447.365 373.005 446.333 372.297 445.625C371.609 444.917 370.651 444.562 369.422 444.562C368.526 444.562 367.745 444.844 367.078 445.406C366.411 445.969 365.776 446.625 365.172 447.375V458H362.609L362.578 448.719C362.578 447.365 362.224 446.333 361.516 445.625C360.828 444.917 359.87 444.562 358.641 444.562C357.786 444.562 357.005 444.812 356.297 445.312C355.609 445.812 354.974 446.417 354.391 447.125V458H351.828V442.375H354.391ZM387.234 442.062C388.839 442.062 390.172 442.396 391.234 443.062C392.297 443.729 393.089 444.635 393.609 445.781C394.151 446.927 394.422 448.219 394.422 449.656V451.188H382.422C382.547 452.062 382.849 452.865 383.328 453.594C383.807 454.323 384.432 454.906 385.203 455.344C385.974 455.76 386.859 455.969 387.859 455.969C388.984 455.969 390.036 455.688 391.016 455.125C391.995 454.542 392.818 453.906 393.484 453.219L393.453 456C393.161 456.354 392.724 456.729 392.141 457.125C391.578 457.5 390.922 457.812 390.172 458.062C389.443 458.333 388.672 458.469 387.859 458.469C386.276 458.469 384.87 458.094 383.641 457.344C382.411 456.594 381.443 455.604 380.734 454.375C380.047 453.125 379.703 451.76 379.703 450.281C379.703 448.802 380.026 447.438 380.672 446.188C381.318 444.938 382.203 443.938 383.328 443.188C384.474 442.438 385.776 442.062 387.234 442.062ZM387.234 444.562C385.943 444.562 384.88 445 384.047 445.875C383.214 446.729 382.693 447.771 382.484 449H391.891C391.786 447.979 391.495 447.146 391.016 446.5C390.557 445.854 389.995 445.375 389.328 445.062C388.661 444.729 387.964 444.562 387.234 444.562ZM411.109 442.375V443.219L401.703 455.594H411.422V458H397.703V457.156L406.797 444.781H398.328V442.375H411.109ZM422.234 442.062C423.13 442.062 424.036 442.281 424.953 442.719C425.891 443.135 426.693 443.719 427.359 444.469V442.375H429.922V458H427.359V455.344C426.818 456.177 426.078 456.906 425.141 457.531C424.224 458.156 423.172 458.469 421.984 458.469C420.651 458.469 419.432 458.135 418.328 457.469C417.224 456.781 416.339 455.833 415.672 454.625C415.026 453.417 414.703 452.021 414.703 450.438C414.703 448.708 415.026 447.219 415.672 445.969C416.339 444.719 417.245 443.76 418.391 443.094C419.536 442.406 420.818 442.062 422.234 442.062ZM422.703 444.562C421.578 444.562 420.62 444.844 419.828 445.406C419.036 445.969 418.422 446.698 417.984 447.594C417.568 448.469 417.359 449.417 417.359 450.438C417.359 451.438 417.568 452.365 417.984 453.219C418.401 454.052 418.984 454.719 419.734 455.219C420.505 455.719 421.391 455.969 422.391 455.969C423.349 455.969 424.203 455.719 424.953 455.219C425.703 454.719 426.297 454.031 426.734 453.156C427.172 452.26 427.38 451.26 427.359 450.156L427.328 447.156C426.682 446.344 425.984 445.708 425.234 445.25C424.505 444.792 423.661 444.562 422.703 444.562Z" fill="#020617"/>
</g>
<g filter="url(#filter3_d_23_1225)">
<rect x="470" y="229" width="200" height="40" rx="10" fill="#E2E8F0" shape-rendering="crispEdges"/>
<path d="M502.766 236.75C503.995 236.75 505.005 236.927 505.797 237.281C506.609 237.635 507.318 238.01 507.922 238.406V241.312C507.339 240.875 506.63 240.469 505.797 240.094C504.964 239.698 504.057 239.5 503.078 239.5C502.453 239.5 501.797 239.615 501.109 239.844C500.443 240.052 499.88 240.396 499.422 240.875C498.964 241.354 498.734 241.969 498.734 242.719C498.734 243.552 499.036 244.188 499.641 244.625C500.245 245.062 500.974 245.479 501.828 245.875L504.703 247.188C506.141 247.833 507.224 248.552 507.953 249.344C508.682 250.135 509.047 251.188 509.047 252.5C509.047 253.646 508.714 254.656 508.047 255.531C507.38 256.385 506.505 257.062 505.422 257.562C504.339 258.062 503.151 258.312 501.859 258.312C500.651 258.312 499.536 258.104 498.516 257.688C497.495 257.271 496.609 256.802 495.859 256.281V253.375C496.672 253.938 497.599 254.448 498.641 254.906C499.703 255.344 500.901 255.562 502.234 255.562C503.276 255.562 504.193 255.302 504.984 254.781C505.776 254.26 506.172 253.542 506.172 252.625C506.172 252.104 506.005 251.656 505.672 251.281C505.359 250.906 504.974 250.583 504.516 250.312C504.057 250.042 503.609 249.812 503.172 249.625L499.703 248.062C498.203 247.396 497.182 246.615 496.641 245.719C496.099 244.823 495.828 243.792 495.828 242.625C495.828 241.521 496.141 240.531 496.766 239.656C497.411 238.76 498.266 238.052 499.328 237.531C500.391 237.01 501.536 236.75 502.766 236.75ZM519.703 242.062C521.307 242.062 522.641 242.396 523.703 243.062C524.766 243.729 525.557 244.635 526.078 245.781C526.62 246.927 526.891 248.219 526.891 249.656V251.188H514.891C515.016 252.062 515.318 252.865 515.797 253.594C516.276 254.323 516.901 254.906 517.672 255.344C518.443 255.76 519.328 255.969 520.328 255.969C521.453 255.969 522.505 255.688 523.484 255.125C524.464 254.542 525.286 253.906 525.953 253.219L525.922 256C525.63 256.354 525.193 256.729 524.609 257.125C524.047 257.5 523.391 257.812 522.641 258.062C521.911 258.333 521.141 258.469 520.328 258.469C518.745 258.469 517.339 258.094 516.109 257.344C514.88 256.594 513.911 255.604 513.203 254.375C512.516 253.125 512.172 251.76 512.172 250.281C512.172 248.802 512.495 247.438 513.141 246.188C513.786 244.938 514.672 243.938 515.797 243.188C516.943 242.438 518.245 242.062 519.703 242.062ZM519.703 244.562C518.411 244.562 517.349 245 516.516 245.875C515.682 246.729 515.161 247.771 514.953 249H524.359C524.255 247.979 523.964 247.146 523.484 246.5C523.026 245.854 522.464 245.375 521.797 245.062C521.13 244.729 520.432 244.562 519.703 244.562ZM537.547 242.062C538.443 242.062 539.349 242.281 540.266 242.719C541.203 243.135 542.005 243.719 542.672 244.469V242.375H545.234V257.688C545.234 259.542 544.859 261.083 544.109 262.312C543.359 263.542 542.359 264.458 541.109 265.062C539.859 265.667 538.495 265.969 537.016 265.969C536.057 265.969 535.234 265.854 534.547 265.625C533.88 265.417 533.307 265.146 532.828 264.812C532.349 264.5 531.911 264.198 531.516 263.906V261.156C531.828 261.385 532.234 261.677 532.734 262.031C533.255 262.406 533.87 262.74 534.578 263.031C535.307 263.323 536.12 263.469 537.016 263.469C538.036 263.469 538.974 263.281 539.828 262.906C540.682 262.531 541.37 261.979 541.891 261.25C542.411 260.521 542.672 259.646 542.672 258.625V255.344C542.13 256.177 541.391 256.906 540.453 257.531C539.536 258.156 538.484 258.469 537.297 258.469C535.964 258.469 534.745 258.135 533.641 257.469C532.536 256.781 531.651 255.833 530.984 254.625C530.339 253.417 530.016 252.021 530.016 250.438C530.016 248.708 530.339 247.219 530.984 245.969C531.651 244.719 532.557 243.76 533.703 243.094C534.849 242.406 536.13 242.062 537.547 242.062ZM538.016 244.594C536.891 244.594 535.932 244.875 535.141 245.438C534.349 245.979 533.734 246.698 533.297 247.594C532.88 248.469 532.672 249.417 532.672 250.438C532.672 251.438 532.88 252.354 533.297 253.188C533.714 254.021 534.297 254.688 535.047 255.188C535.818 255.688 536.703 255.938 537.703 255.938C538.661 255.938 539.516 255.688 540.266 255.188C541.016 254.688 541.609 254 542.047 253.125C542.484 252.25 542.693 251.26 542.672 250.156L542.641 247.156C541.995 246.344 541.297 245.719 540.547 245.281C539.818 244.823 538.974 244.594 538.016 244.594ZM563.328 242.375V251.625C563.328 253 563.036 254.188 562.453 255.188C561.87 256.188 561.078 256.958 560.078 257.5C559.078 258.042 557.953 258.312 556.703 258.312C555.453 258.312 554.328 258.042 553.328 257.5C552.328 256.958 551.536 256.188 550.953 255.188C550.37 254.188 550.078 253 550.078 251.625V242.375H552.734V251.625C552.734 252.979 553.13 254.021 553.922 254.75C554.734 255.458 555.661 255.812 556.703 255.812C557.745 255.812 558.661 255.458 559.453 254.75C560.266 254.021 560.672 252.979 560.672 251.625V242.375H563.328ZM570.734 242.375V245.5C571.339 244.458 572.068 243.625 572.922 243C573.776 242.375 574.651 242.062 575.547 242.062C576.151 242.062 576.693 242.167 577.172 242.375V245.344C576.505 244.948 575.839 244.75 575.172 244.75C574.109 244.75 573.245 245.125 572.578 245.875C571.932 246.625 571.318 247.521 570.734 248.562V258H568.172V242.375H570.734ZM582.953 234.875C583.557 234.875 584.057 235.094 584.453 235.531C584.87 235.948 585.078 236.438 585.078 237C585.078 237.542 584.87 238.031 584.453 238.469C584.057 238.906 583.557 239.125 582.953 239.125C582.349 239.125 581.839 238.906 581.422 238.469C581.026 238.031 580.828 237.542 580.828 237C580.828 236.438 581.026 235.948 581.422 235.531C581.839 235.094 582.349 234.875 582.953 234.875ZM584.547 242.375V258H581.984V244.781H579.516V242.375H584.547ZM604.203 235.5V258H601.641V255.344C601.099 256.177 600.359 256.906 599.422 257.531C598.505 258.156 597.453 258.469 596.266 258.469C594.932 258.469 593.714 258.135 592.609 257.469C591.505 256.781 590.62 255.833 589.953 254.625C589.307 253.417 588.984 252.021 588.984 250.438C588.984 248.708 589.307 247.219 589.953 245.969C590.62 244.719 591.526 243.76 592.672 243.094C593.818 242.406 595.099 242.062 596.516 242.062C597.411 242.062 598.318 242.281 599.234 242.719C600.172 243.135 600.974 243.719 601.641 244.469V235.5H604.203ZM596.984 244.625C595.859 244.625 594.901 244.906 594.109 245.469C593.318 246.01 592.703 246.719 592.266 247.594C591.849 248.469 591.641 249.417 591.641 250.438C591.641 251.438 591.849 252.365 592.266 253.219C592.682 254.052 593.266 254.719 594.016 255.219C594.786 255.719 595.672 255.969 596.672 255.969C597.63 255.969 598.484 255.719 599.234 255.219C599.984 254.719 600.578 254.031 601.016 253.156C601.453 252.26 601.661 251.26 601.641 250.156L601.609 247.156C600.964 246.344 600.266 245.719 599.516 245.281C598.786 244.844 597.943 244.625 596.984 244.625ZM615.953 242.062C616.849 242.062 617.755 242.281 618.672 242.719C619.609 243.135 620.411 243.719 621.078 244.469V242.375H623.641V258H621.078V255.344C620.536 256.177 619.797 256.906 618.859 257.531C617.943 258.156 616.891 258.469 615.703 258.469C614.37 258.469 613.151 258.135 612.047 257.469C610.943 256.781 610.057 255.833 609.391 254.625C608.745 253.417 608.422 252.021 608.422 250.438C608.422 248.708 608.745 247.219 609.391 245.969C610.057 244.719 610.964 243.76 612.109 243.094C613.255 242.406 614.536 242.062 615.953 242.062ZM616.422 244.562C615.297 244.562 614.339 244.844 613.547 245.406C612.755 245.969 612.141 246.698 611.703 247.594C611.286 248.469 611.078 249.417 611.078 250.438C611.078 251.438 611.286 252.365 611.703 253.219C612.12 254.052 612.703 254.719 613.453 255.219C614.224 255.719 615.109 255.969 616.109 255.969C617.068 255.969 617.922 255.719 618.672 255.219C619.422 254.719 620.016 254.031 620.453 253.156C620.891 252.26 621.099 251.26 621.078 250.156L621.047 247.156C620.401 246.344 619.703 245.708 618.953 245.25C618.224 244.792 617.38 244.562 616.422 244.562ZM643.078 235.5V258H640.516V255.344C639.974 256.177 639.234 256.906 638.297 257.531C637.38 258.156 636.328 258.469 635.141 258.469C633.807 258.469 632.589 258.135 631.484 257.469C630.38 256.781 629.495 255.833 628.828 254.625C628.182 253.417 627.859 252.021 627.859 250.438C627.859 248.708 628.182 247.219 628.828 245.969C629.495 244.719 630.401 243.76 631.547 243.094C632.693 242.406 633.974 242.062 635.391 242.062C636.286 242.062 637.193 242.281 638.109 242.719C639.047 243.135 639.849 243.719 640.516 244.469V235.5H643.078ZM635.859 244.625C634.734 244.625 633.776 244.906 632.984 245.469C632.193 246.01 631.578 246.719 631.141 247.594C630.724 248.469 630.516 249.417 630.516 250.438C630.516 251.438 630.724 252.365 631.141 253.219C631.557 254.052 632.141 254.719 632.891 255.219C633.661 255.719 634.547 255.969 635.547 255.969C636.505 255.969 637.359 255.719 638.109 255.219C638.859 254.719 639.453 254.031 639.891 253.156C640.328 252.26 640.536 251.26 640.516 250.156L640.484 247.156C639.839 246.344 639.141 245.719 638.391 245.281C637.661 244.844 636.818 244.625 635.859 244.625Z" fill="#020617"/>
</g>
<g filter="url(#filter4_d_23_1225)">
<rect x="70" y="229" width="200" height="40" rx="10" fill="#E2E8F0" shape-rendering="crispEdges"/>
<path d="M124.234 245.938V248.594H114.047V255.344H125.578V258H111.234V237.062H125.578V239.719H114.047V245.938H124.234ZM133.297 242.375V244.844C133.63 244.427 134.057 244.01 134.578 243.594C135.099 243.156 135.682 242.792 136.328 242.5C136.995 242.208 137.682 242.062 138.391 242.062C139.453 242.062 140.422 242.302 141.297 242.781C142.172 243.24 142.87 243.948 143.391 244.906C143.911 245.844 144.172 247.031 144.172 248.469V258H141.609L141.578 248.719C141.578 247.365 141.276 246.333 140.672 245.625C140.089 244.917 139.182 244.562 137.953 244.562C137.12 244.562 136.286 244.875 135.453 245.5C134.641 246.104 133.922 246.812 133.297 247.625V258H130.734V242.375H133.297ZM157.109 242.375V244.781H152.547V258H149.984V244.781H147.516V242.375H149.984V240.375C149.984 239.146 150.224 238.146 150.703 237.375C151.182 236.583 151.797 236 152.547 235.625C153.297 235.229 154.057 235.031 154.828 235.031C155.891 235.031 156.755 235.312 157.422 235.875V238.125C157.109 237.917 156.734 237.75 156.297 237.625C155.859 237.5 155.422 237.448 154.984 237.469C154.214 237.49 153.609 237.74 153.172 238.219C152.755 238.677 152.547 239.49 152.547 240.656V242.375H157.109ZM167.578 242.062C169.161 242.062 170.568 242.438 171.797 243.188C173.026 243.938 173.984 244.938 174.672 246.188C175.38 247.438 175.734 248.802 175.734 250.281C175.734 251.76 175.38 253.125 174.672 254.375C173.984 255.604 173.026 256.594 171.797 257.344C170.568 258.094 169.161 258.469 167.578 258.469C165.995 258.469 164.589 258.094 163.359 257.344C162.13 256.594 161.161 255.604 160.453 254.375C159.766 253.125 159.422 251.76 159.422 250.281C159.422 248.802 159.766 247.438 160.453 246.188C161.161 244.938 162.13 243.938 163.359 243.188C164.589 242.438 165.995 242.062 167.578 242.062ZM167.578 244.562C166.474 244.562 165.505 244.833 164.672 245.375C163.839 245.896 163.193 246.594 162.734 247.469C162.297 248.323 162.078 249.26 162.078 250.281C162.078 251.281 162.297 252.219 162.734 253.094C163.193 253.948 163.839 254.646 164.672 255.188C165.505 255.708 166.474 255.969 167.578 255.969C168.703 255.969 169.672 255.708 170.484 255.188C171.318 254.646 171.953 253.948 172.391 253.094C172.849 252.219 173.078 251.281 173.078 250.281C173.078 249.26 172.849 248.323 172.391 247.469C171.953 246.594 171.318 245.896 170.484 245.375C169.672 244.833 168.703 244.562 167.578 244.562ZM186.391 242.062C187.286 242.062 188.193 242.281 189.109 242.719C190.047 243.135 190.849 243.719 191.516 244.469V242.375H194.078V265.5H191.516V255.344C190.974 256.177 190.234 256.906 189.297 257.531C188.38 258.156 187.328 258.469 186.141 258.469C184.807 258.469 183.589 258.135 182.484 257.469C181.38 256.781 180.495 255.833 179.828 254.625C179.182 253.417 178.859 252.021 178.859 250.438C178.859 248.708 179.182 247.219 179.828 245.969C180.495 244.719 181.401 243.76 182.547 243.094C183.693 242.406 184.974 242.062 186.391 242.062ZM186.859 244.594C185.734 244.594 184.776 244.875 183.984 245.438C183.193 245.979 182.578 246.698 182.141 247.594C181.724 248.469 181.516 249.417 181.516 250.438C181.516 251.438 181.724 252.354 182.141 253.188C182.557 254.021 183.141 254.688 183.891 255.188C184.661 255.688 185.547 255.938 186.547 255.938C187.505 255.938 188.359 255.688 189.109 255.188C189.859 254.688 190.453 254 190.891 253.125C191.328 252.25 191.536 251.26 191.516 250.156L191.484 247.156C190.839 246.344 190.141 245.719 189.391 245.281C188.661 244.823 187.818 244.594 186.859 244.594ZM212.172 242.375V251.625C212.172 253 211.88 254.188 211.297 255.188C210.714 256.188 209.922 256.958 208.922 257.5C207.922 258.042 206.797 258.312 205.547 258.312C204.297 258.312 203.172 258.042 202.172 257.5C201.172 256.958 200.38 256.188 199.797 255.188C199.214 254.188 198.922 253 198.922 251.625V242.375H201.578V251.625C201.578 252.979 201.974 254.021 202.766 254.75C203.578 255.458 204.505 255.812 205.547 255.812C206.589 255.812 207.505 255.458 208.297 254.75C209.109 254.021 209.516 252.979 209.516 251.625V242.375H212.172ZM223.453 242.062C225.057 242.062 226.391 242.396 227.453 243.062C228.516 243.729 229.307 244.635 229.828 245.781C230.37 246.927 230.641 248.219 230.641 249.656V251.188H218.641C218.766 252.062 219.068 252.865 219.547 253.594C220.026 254.323 220.651 254.906 221.422 255.344C222.193 255.76 223.078 255.969 224.078 255.969C225.203 255.969 226.255 255.688 227.234 255.125C228.214 254.542 229.036 253.906 229.703 253.219L229.672 256C229.38 256.354 228.943 256.729 228.359 257.125C227.797 257.5 227.141 257.812 226.391 258.062C225.661 258.333 224.891 258.469 224.078 258.469C222.495 258.469 221.089 258.094 219.859 257.344C218.63 256.594 217.661 255.604 216.953 254.375C216.266 253.125 215.922 251.76 215.922 250.281C215.922 248.802 216.245 247.438 216.891 246.188C217.536 244.938 218.422 243.938 219.547 243.188C220.693 242.438 221.995 242.062 223.453 242.062ZM223.453 244.562C222.161 244.562 221.099 245 220.266 245.875C219.432 246.729 218.911 247.771 218.703 249H228.109C228.005 247.979 227.714 247.146 227.234 246.5C226.776 245.854 226.214 245.375 225.547 245.062C224.88 244.729 224.182 244.562 223.453 244.562Z" fill="#020617"/>
</g>
<path d="M315.891 236.594C317.203 236.594 318.339 236.781 319.297 237.156C320.255 237.51 321.089 238 321.797 238.625V243C321.297 242.625 320.776 242.26 320.234 241.906C319.693 241.552 319.078 241.26 318.391 241.031C317.724 240.802 316.932 240.688 316.016 240.688C314.766 240.688 313.63 240.99 312.609 241.594C311.589 242.198 310.776 243.01 310.172 244.031C309.568 245.052 309.266 246.219 309.266 247.531C309.266 248.823 309.568 249.99 310.172 251.031C310.776 252.052 311.589 252.865 312.609 253.469C313.63 254.052 314.766 254.344 316.016 254.344C317.411 254.344 318.578 254.135 319.516 253.719C320.474 253.281 321.339 252.75 322.109 252.125V256.344C321.401 256.99 320.516 257.51 319.453 257.906C318.391 258.281 317.203 258.469 315.891 258.469C314.391 258.469 312.974 258.208 311.641 257.688C310.307 257.146 309.13 256.396 308.109 255.438C307.089 254.458 306.286 253.302 305.703 251.969C305.12 250.635 304.828 249.156 304.828 247.531C304.828 245.906 305.12 244.427 305.703 243.094C306.286 241.76 307.089 240.615 308.109 239.656C309.13 238.677 310.307 237.927 311.641 237.406C312.974 236.865 314.391 236.594 315.891 236.594ZM335.891 246.656C335.224 246.281 334.526 246.094 333.797 246.094C332.88 246.094 332.12 246.396 331.516 247C330.911 247.583 330.38 248.312 329.922 249.188V258H325.953V242.219H329.922V245.188C330.464 244.25 331.099 243.469 331.828 242.844C332.578 242.219 333.422 241.906 334.359 241.906C334.922 241.906 335.432 242 335.891 242.188V246.656ZM345.859 241.812C347.401 241.812 348.724 242.146 349.828 242.812C350.953 243.479 351.807 244.406 352.391 245.594C352.995 246.76 353.297 248.115 353.297 249.656V251.344H341.859C342.068 252.406 342.589 253.26 343.422 253.906C344.255 254.552 345.276 254.875 346.484 254.875C347.63 254.875 348.672 254.646 349.609 254.188C350.547 253.729 351.297 253.26 351.859 252.781L351.828 256.469C351.328 256.906 350.578 257.354 349.578 257.812C348.599 258.25 347.516 258.469 346.328 258.469C344.766 258.469 343.339 258.115 342.047 257.406C340.776 256.698 339.755 255.729 338.984 254.5C338.234 253.271 337.859 251.865 337.859 250.281C337.859 248.74 338.203 247.333 338.891 246.062C339.578 244.792 340.526 243.771 341.734 243C342.943 242.208 344.318 241.812 345.859 241.812ZM345.766 245.281C344.786 245.281 343.964 245.583 343.297 246.188C342.63 246.792 342.172 247.604 341.922 248.625H349.484C349.401 247.5 348.984 246.667 348.234 246.125C347.484 245.562 346.661 245.281 345.766 245.281ZM363.172 241.812C364.026 241.812 364.891 242.01 365.766 242.406C366.641 242.802 367.37 243.333 367.953 244V242.219H371.922V258H367.953V255.344C367.495 256.198 366.828 256.938 365.953 257.562C365.078 258.167 364.057 258.469 362.891 258.469C361.62 258.469 360.443 258.146 359.359 257.5C358.297 256.854 357.443 255.917 356.797 254.688C356.151 253.458 355.828 251.969 355.828 250.219C355.828 248.469 356.151 246.969 356.797 245.719C357.464 244.469 358.349 243.51 359.453 242.844C360.578 242.156 361.818 241.812 363.172 241.812ZM363.984 245.688C363.151 245.688 362.432 245.906 361.828 246.344C361.245 246.76 360.786 247.312 360.453 248C360.12 248.688 359.953 249.427 359.953 250.219C359.953 251.406 360.307 252.417 361.016 253.25C361.745 254.083 362.703 254.5 363.891 254.5C364.599 254.5 365.255 254.312 365.859 253.938C366.484 253.562 366.984 253.042 367.359 252.375C367.755 251.688 367.953 250.865 367.953 249.906V247.656C367.391 247.052 366.776 246.573 366.109 246.219C365.464 245.865 364.755 245.688 363.984 245.688ZM380.766 242.219V244.219C381.245 243.615 381.818 243.062 382.484 242.562C383.172 242.062 384.047 241.812 385.109 241.812C386.214 241.812 387.214 242.073 388.109 242.594C389.005 243.094 389.703 243.854 390.203 244.875C390.828 244.021 391.557 243.302 392.391 242.719C393.224 242.115 394.193 241.812 395.297 241.812C396.359 241.812 397.328 242.062 398.203 242.562C399.078 243.042 399.776 243.76 400.297 244.719C400.839 245.677 401.109 246.875 401.109 248.312V258H397.141L397.109 248.844C397.109 247.781 396.828 246.99 396.266 246.469C395.724 245.948 395.005 245.688 394.109 245.688C393.422 245.688 392.828 245.906 392.328 246.344C391.828 246.76 391.359 247.26 390.922 247.844V258H386.953L386.922 248.844C386.922 247.781 386.641 246.99 386.078 246.469C385.536 245.948 384.828 245.688 383.953 245.688C383.286 245.688 382.693 245.896 382.172 246.312C381.651 246.708 381.182 247.177 380.766 247.719V258H376.797V242.219H380.766ZM412.984 241.812C414.526 241.812 415.932 242.188 417.203 242.938C418.474 243.667 419.495 244.667 420.266 245.938C421.057 247.188 421.453 248.594 421.453 250.156C421.453 251.719 421.057 253.125 420.266 254.375C419.495 255.625 418.474 256.625 417.203 257.375C415.932 258.104 414.526 258.469 412.984 258.469C411.464 258.469 410.057 258.104 408.766 257.375C407.495 256.625 406.474 255.625 405.703 254.375C404.932 253.125 404.547 251.719 404.547 250.156C404.547 248.594 404.932 247.188 405.703 245.938C406.474 244.667 407.495 243.667 408.766 242.938C410.057 242.188 411.464 241.812 412.984 241.812ZM412.984 245.656C412.234 245.656 411.536 245.833 410.891 246.188C410.245 246.542 409.724 247.052 409.328 247.719C408.953 248.385 408.766 249.198 408.766 250.156C408.766 251.115 408.953 251.927 409.328 252.594C409.724 253.26 410.245 253.771 410.891 254.125C411.536 254.458 412.234 254.625 412.984 254.625C413.734 254.625 414.432 254.458 415.078 254.125C415.724 253.771 416.245 253.26 416.641 252.594C417.036 251.927 417.234 251.115 417.234 250.156C417.234 249.198 417.036 248.385 416.641 247.719C416.245 247.052 415.724 246.542 415.078 246.188C414.432 245.833 413.734 245.656 412.984 245.656ZM430.297 241.812C431.276 241.812 432.182 241.958 433.016 242.25C433.849 242.542 434.495 242.875 434.953 243.25V246.75C434.453 246.417 433.839 246.094 433.109 245.781C432.401 245.469 431.661 245.312 430.891 245.312C430.141 245.312 429.547 245.479 429.109 245.812C428.672 246.146 428.453 246.542 428.453 247C428.453 247.333 428.578 247.646 428.828 247.938C429.078 248.208 429.557 248.448 430.266 248.656L432.047 249.25C434.443 249.958 435.641 251.344 435.641 253.406C435.641 254.385 435.359 255.26 434.797 256.031C434.255 256.781 433.516 257.375 432.578 257.812C431.661 258.25 430.641 258.469 429.516 258.469C428.453 258.469 427.422 258.302 426.422 257.969C425.422 257.635 424.661 257.271 424.141 256.875V253.406C424.536 253.677 425.016 253.938 425.578 254.188C426.141 254.438 426.724 254.646 427.328 254.812C427.932 254.958 428.484 255.031 428.984 255.031C429.776 255.031 430.38 254.896 430.797 254.625C431.234 254.333 431.453 253.927 431.453 253.406C431.453 253.01 431.276 252.698 430.922 252.469C430.568 252.24 430.047 252.01 429.359 251.781L427.422 251.094C426.214 250.698 425.38 250.135 424.922 249.406C424.464 248.677 424.234 247.812 424.234 246.812C424.234 245.812 424.484 244.948 424.984 244.219C425.505 243.469 426.224 242.885 427.141 242.469C428.057 242.031 429.109 241.812 430.297 241.812Z" fill="#01AF00"/>
<g filter="url(#filter5_d_23_1225)">
<path d="M381.997 275.698C382.705 291.078 366.498 301.456 352.825 294.379L298.987 266.514C285.314 259.438 284.429 240.213 297.394 231.91L348.445 199.217C361.411 190.914 378.502 199.76 379.21 215.14L381.997 275.698Z" fill="#01AF00" fill-opacity="0.1" shape-rendering="crispEdges"/>
</g>
<defs>
<filter id="filter0_d_23_1225" x="150" y="36" width="440" height="440" filterUnits="userSpaceOnUse" color-interpolation-filters="sRGB">
<feFlood flood-opacity="0" result="BackgroundImageFix"/>
<feColorMatrix in="SourceAlpha" type="matrix" values="0 0 0 0 0 0 0 0 0 0 0 0 0 0 0 0 0 0 127 0" result="hardAlpha"/>
<feOffset dy="7"/>
<feGaussianBlur stdDeviation="10"/>
<feComposite in2="hardAlpha" operator="out"/>
<feColorMatrix type="matrix" values="0 0 0 0 0 0 0 0 0 0 0 0 0 0 0 0 0 0 0.1 0"/>
<feBlend mode="normal" in2="BackgroundImageFix" result="effect1_dropShadow_23_1225"/>
<feBlend mode="normal" in="SourceGraphic" in2="effect1_dropShadow_23_1225" result="shape"/>
</filter>
<filter id="filter1_d_23_1225" x="250" y="16" width="240" height="80" filterUnits="userSpaceOnUse" color-interpolation-filters="sRGB">
<feFlood flood-opacity="0" result="BackgroundImageFix"/>
<feColorMatrix in="SourceAlpha" type="matrix" values="0 0 0 0 0 0 0 0 0 0 0 0 0 0 0 0 0 0 127 0" result="hardAlpha"/>
<feOffset dy="7"/>
<feGaussianBlur stdDeviation="10"/>
<feComposite in2="hardAlpha" operator="out"/>
<feColorMatrix type="matrix" values="0 0 0 0 0 0 0 0 0 0 0 0 0 0 0 0 0 0 0.07 0"/>
<feBlend mode="normal" in2="BackgroundImageFix" result="effect1_dropShadow_23_1225"/>
<feBlend mode="normal" in="SourceGraphic" in2="effect1_dropShadow_23_1225" result="shape"/>
</filter>
<filter id="filter2_d_23_1225" x="250" y="416" width="240" height="80" filterUnits="userSpaceOnUse" color-interpolation-filters="sRGB">
<feFlood flood-opacity="0" result="BackgroundImageFix"/>
<feColorMatrix in="SourceAlpha" type="matrix" values="0 0 0 0 0 0 0 0 0 0 0 0 0 0 0 0 0 0 127 0" result="hardAlpha"/>
<feOffset dy="7"/>
<feGaussianBlur stdDeviation="10"/>
<feComposite in2="hardAlpha" operator="out"/>
<feColorMatrix type="matrix" values="0 0 0 0 0 0 0 0 0 0 0 0 0 0 0 0 0 0 0.07 0"/>
<feBlend mode="normal" in2="BackgroundImageFix" result="effect1_dropShadow_23_1225"/>
<feBlend mode="normal" in="SourceGraphic" in2="effect1_dropShadow_23_1225" result="shape"/>
</filter>
<filter id="filter3_d_23_1225" x="450" y="216" width="240" height="80" filterUnits="userSpaceOnUse" color-interpolation-filters="sRGB">
<feFlood flood-opacity="0" result="BackgroundImageFix"/>
<feColorMatrix in="SourceAlpha" type="matrix" values="0 0 0 0 0 0 0 0 0 0 0 0 0 0 0 0 0 0 127 0" result="hardAlpha"/>
<feOffset dy="7"/>
<feGaussianBlur stdDeviation="10"/>
<feComposite in2="hardAlpha" operator="out"/>
<feColorMatrix type="matrix" values="0 0 0 0 0 0 0 0 0 0 0 0 0 0 0 0 0 0 0.07 0"/>
<feBlend mode="normal" in2="BackgroundImageFix" result="effect1_dropShadow_23_1225"/>
<feBlend mode="normal" in="SourceGraphic" in2="effect1_dropShadow_23_1225" result="shape"/>
</filter>
<filter id="filter4_d_23_1225" x="50" y="216" width="240" height="80" filterUnits="userSpaceOnUse" color-interpolation-filters="sRGB">
<feFlood flood-opacity="0" result="BackgroundImageFix"/>
<feColorMatrix in="SourceAlpha" type="matrix" values="0 0 0 0 0 0 0 0 0 0 0 0 0 0 0 0 0 0 127 0" result="hardAlpha"/>
<feOffset dy="7"/>
<feGaussianBlur stdDeviation="10"/>
<feComposite in2="hardAlpha" operator="out"/>
<feColorMatrix type="matrix" values="0 0 0 0 0 0 0 0 0 0 0 0 0 0 0 0 0 0 0.07 0"/>
<feBlend mode="normal" in2="BackgroundImageFix" result="effect1_dropShadow_23_1225"/>
<feBlend mode="normal" in="SourceGraphic" in2="effect1_dropShadow_23_1225" result="shape"/>
</filter>
<filter id="filter5_d_23_1225" x="268.18" y="183.032" width="133.84" height="140.616" filterUnits="userSpaceOnUse" color-interpolation-filters="sRGB">
<feFlood flood-opacity="0" result="BackgroundImageFix"/>
<feColorMatrix in="SourceAlpha" type="matrix" values="0 0 0 0 0 0 0 0 0 0 0 0 0 0 0 0 0 0 127 0" result="hardAlpha"/>
<feOffset dy="7"/>
<feGaussianBlur stdDeviation="10"/>
<feComposite in2="hardAlpha" operator="out"/>
<feColorMatrix type="matrix" values="0 0 0 0 0 0 0 0 0 0 0 0 0 0 0 0 0 0 0.07 0"/>
<feBlend mode="normal" in2="BackgroundImageFix" result="effect1_dropShadow_23_1225"/>
<feBlend mode="normal" in="SourceGraphic" in2="effect1_dropShadow_23_1225" result="shape"/>
</filter>
</defs>
</svg>
